<svg xmlns="http://www.w3.org/2000/svg" viewBox="0 0 140 140" height="140" width="140"><g transform="matrix(0.7,0,0,0.7,0,0)"><defs><style>.a{fill:#2c2c2c}.b{fill:#ffc2c4}.c{fill:#fce2da}.e{fill:#fff}.f{fill:#d4e4d9}.g{fill:#d9ad9f}.h{fill:#e6dcec}.i{fill:#dfdfdf}.j{fill:#cbdaeb}</style></defs><path class="a" d="M199.972 155.933a34.133 34.133 0 0 1-.5 7.375 2.957 2.957 0 0 1-.525 1.324c-.052.089-.155.17-.155.251-.022 1.036-.918 1.044-1.554 1.221a45.6 45.6 0 0 1-10.822 1.368c-.843.023-1.679.06-2.515.045a6.01 6.01 0 0 0-3.062.651 1.66 1.66 0 0 1-1.753-.318.773.773 0 0 0-.481-.082c-2.034-.007-4.068.015-6.1-.007-2.478-.03-4.934-.311-7.4-.436-1.908-.1-3.824-.111-5.74-.193-1.85-.074-3.706-.14-5.548-.34a1 1 0 0 0-.777.215c-1.568 1.168-3.144 2.315-4.712 3.491a10.3 10.3 0 0 1-1.56.843c-.57.289-1.044.644-.94 1.457-.392-.281-.621-.044-.88.141-3.684 2.559-7.286 5.252-11.2 7.456a129.035 129.035 0 0 1-11.222 5.629 11.982 11.982 0 0 1-7.131.718c-1.279-.222-2.559-.422-3.817-.74a.571.571 0 0 0-.29-.021.563.563 0 0 0-.264.125 25.783 25.783 0 0 1-3.307 2.359.652.652 0 0 0-.288.37c-.059.163-.193.318-.348.289-.6-.119-1.006.3-1.479.518a50.239 50.239 0 0 1-12.634 4.112 36.24 36.24 0 0 1-9.462.452 17.3 17.3 0 0 1-3.01-.452 3.23 3.23 0 0 1-2.589-2.448c-.081-.348-.2-.355-.473-.185a20.083 20.083 0 0 1-8.285 2.515 44.133 44.133 0 0 1-13.4.126c-.288-.052-.266.111-.3.3a11.668 11.668 0 0 0-.14 1.967c0 .415-.119.644-.592.725a14.076 14.076 0 0 1-4.276-.2c-4.164-.533-8.062-2.072-12.064-3.211-2.279-.651-4.549-1.331-6.828-2a4.255 4.255 0 0 1-1.1-.451 1.051 1.051 0 0 1-.577-.925 15.159 15.159 0 0 1 .444-3.491c-1.08-.244-2.2-.511-3.321-.733a3.324 3.324 0 0 1-2.049-1.257c-.607-.784-1.236-1.569-1.8-2.389-1.3-1.887-2.522-3.832-3.876-5.681a6.411 6.411 0 0 1-1.013-4.653 46.091 46.091 0 0 1 1.605-8.566 20.572 20.572 0 0 0 .325-6.428 21.029 21.029 0 0 1 .171-4.527 1.667 1.667 0 0 1 1.352-1.542.428.428 0 0 0 .229-.163c.688-1.109 1.509-2.167 1.154-3.632-.363-1.509-.636-3.04-.955-4.571-.288.014-.369.251-.51.407a19.027 19.027 0 0 1-2.707 2.692 3.923 3.923 0 0 1-1.376.71 1.222 1.222 0 0 1-1.476-.563 1.2 1.2 0 0 1-.151-.546 4.567 4.567 0 0 1 .192-1.946 17.092 17.092 0 0 1 1.7-3.809 1.823 1.823 0 0 0 .281-.673c-.207.222-.414.444-.614.665-1.42 1.561-2.692 3.262-4.209 4.742a6.008 6.008 0 0 1-1.546 1.213 1.412 1.412 0 0 1-2.2-1.087 4.852 4.852 0 0 1 .325-2.4 28.292 28.292 0 0 1 3.218-6.325 2.042 2.042 0 0 0 .347-.784c-.458.525-.917 1.043-1.368 1.576-1.11 1.3-2.093 2.714-3.277 3.964a7.228 7.228 0 0 1-1.428 1.265 1.79 1.79 0 0 1-1.923.2 1.687 1.687 0 0 1-.68-1.8 14.651 14.651 0 0 1 1.546-5.118 36.922 36.922 0 0 1 3.661-5.955 1.963 1.963 0 0 0 .385-.755c-.318.252-.636.5-.94.763a50.138 50.138 0 0 0-5.017 5.53 11.4 11.4 0 0 1-1.983 2.064c-1.065.769-1.967.444-2.278-.843a6.071 6.071 0 0 1 .444-3.684 23.394 23.394 0 0 1 4.667-7.042 46.207 46.207 0 0 1 6.7-6.139 19.121 19.121 0 0 1 3.957-2.271 3.074 3.074 0 0 0-1.812-1.073 23.571 23.571 0 0 0-3.676-.458 8.441 8.441 0 0 1-2.227-.415c-1.76-.68-2.1-2.248-.754-3.58a7.269 7.269 0 0 1 4.312-1.886 19.3 19.3 0 0 1 10.521 1.827c.518.229.622.148.725-.385a12.683 12.683 0 0 0-.385-5.326 14.549 14.549 0 0 1 1.154-10.467 15.238 15.238 0 0 1 6.931-6.886A53.834 53.834 0 0 0 42.658 79.7a1.367 1.367 0 0 1 .7-.429c.318-.044.207-.3.207-.473a13.942 13.942 0 0 1 .214-2.138 5.918 5.918 0 0 1 1.742-3.46c.1-.088.237-.162.237-.332-3.159-.1-5.844-1.576-8.552-2.937a21.435 21.435 0 0 1-6.99-5.726 13.659 13.659 0 0 1-2.448-4.349c-.23-.7-.533-1.376-.829-2.049a4.415 4.415 0 0 0-1.62-1.96 11.217 11.217 0 0 1-4.231-5.578c-.895-2.241-1.62-4.541-2.426-6.812-.281-.807-.732-1.524-.954-2.367a11.708 11.708 0 0 1-.185-4.024 29.1 29.1 0 0 1 4.66-13.419c.274-.414.6-.8.91-1.183.081-.1.229-.259.318-.244.6.11.644-.363.821-.718A20.791 20.791 0 0 1 34.44 11.49a12.068 12.068 0 0 1 5.66-1.058c.414.022.621-.067.739-.518A6.477 6.477 0 0 1 42.3 7.2a11.208 11.208 0 0 1 6.946-4 8.242 8.242 0 0 1 3.8.591c.777.267 1.539.555 2.308.829a3.022 3.022 0 0 0 2.493-.141 6.1 6.1 0 0 1 .991-.406 2.163 2.163 0 0 1 2.897 2.357 3.651 3.651 0 0 1-1.2 2.345c-.289.289-.488.451.081.71a2.14 2.14 0 0 1 .954 3.373c-.051.089-.118.17-.17.252-.229.392-.836.7-.754 1.065.081.355.666.584 1 .895a31.493 31.493 0 0 1 7.094 10.267 21.556 21.556 0 0 1 2.116 8.351 18.879 18.879 0 0 1-1.265 6.843 5.489 5.489 0 0 1-1.139 2.337.847.847 0 0 0-.163.437 10.972 10.972 0 0 1-.821 2.618 3.991 3.991 0 0 0-.074 3.373c.355.866.666 1.754.991 2.634.1.281.193.414.548.259a5.72 5.72 0 0 1 6.679 1.1 19.076 19.076 0 0 1 3.063 3.58c.3.474.636.925.917 1.405a6.534 6.534 0 0 0 3.987 3.129 4.665 4.665 0 0 1 2.8 2.012.981.981 0 0 0 .407.348 25.345 25.345 0 0 1 4.8 2.9 10.245 10.245 0 0 0 5.274 1.856 21.105 21.105 0 0 1 8.566 3.189c2.678 1.545 4.771 3.787 7.02 5.843a11.968 11.968 0 0 1 1.028 1c.281.325.466.251.777.029a6.742 6.742 0 0 1 3.343-1.612c.4-.037.178-.325.126-.488-.584-2.16-1.162-4.313-1.768-6.458-.6-2.093-1.257-4.165-1.812-6.265a1.024 1.024 0 0 0-1.073-.873c-1.309-.074-2.626-.17-3.935-.237a1.951 1.951 0 0 1-1.783-1.072 47.017 47.017 0 0 1-4.016-10.216 81.123 81.123 0 0 1-2.22-9.971c-.458-3.077-.843-6.206.008-9.269a13.572 13.572 0 0 1 10.356-10.052 17.346 17.346 0 0 1 2.825-.5 1.258 1.258 0 0 0 1.125-.821 26.978 26.978 0 0 1 2.234-4.091 12.908 12.908 0 0 1 6.635-4.779 39.769 39.769 0 0 1 11.192-2.056 46.772 46.772 0 0 1 7.353.141 35.5 35.5 0 0 1 13 3.6 9.1 9.1 0 0 1 3.543 3.217 3.827 3.827 0 0 1 .651 2.789 1.724 1.724 0 0 0 .88 1.916 35.909 35.909 0 0 1 4.631 3.181 12.6 12.6 0 0 1 1.96 2.012 2.2 2.2 0 0 1-.34 3.328 4.591 4.591 0 0 1-3.211 1.25c-.451-.007-.473.1-.274.452a16.415 16.415 0 0 1 1.3 3.018c.333 1.05-.118 1.694-1.228 1.694a7.413 7.413 0 0 1-3.617-1.11 14.238 14.238 0 0 1-1.93-1.368c-.17 2.8-.333 5.5-.518 8.21a1.464 1.464 0 0 0 .569 1.421 8.256 8.256 0 0 1 1.243 10.822 5.444 5.444 0 0 1-1.1 1.331 3.442 3.442 0 0 0-1.08 1.731 93.006 93.006 0 0 1-6.694 15.194 7.994 7.994 0 0 1-4.5 3.876c-.474.163-.932.347-1.406.5a.523.523 0 0 0-.444.532c-.066 1.006-.081 1.021.947.991a31.953 31.953 0 0 1 4.365-.029 5.23 5.23 0 0 1 2.537.984 8.3 8.3 0 0 1 1.117.887 7.849 7.849 0 0 0 5.185 2.131c3.24.34 6.48.5 9.727.606a15.254 15.254 0 0 1 6.946 1.513 11.207 11.207 0 0 1 5.933 8.04 33.872 33.872 0 0 1 .466 5.652A68.038 68.038 0 0 0 182.974 110a16.04 16.04 0 0 0 2.211 4.875c1.28 2.2 2.863 4.253 3.795 6.643a2.973 2.973 0 0 0 2.212 2.1 8.478 8.478 0 0 1 2.692 1.523.637.637 0 0 1 .318.659 4.336 4.336 0 0 0 .1 1.065 1.581 1.581 0 0 0 .784 1.3 2.216 2.216 0 0 1 .977 2.123 1.941 1.941 0 0 1-.03.3c-.17 1.184-.444 2.294.355 3.477a3.563 3.563 0 0 1 .333 2.944.818.818 0 0 0 .044.474c.4 1.057.407 2.233 1.029 3.225a2 2 0 0 0-1.241.966 2.008 2.008 0 0 0-.165 1.564 25.1 25.1 0 0 0 1.561 4.134 24.512 24.512 0 0 1 2.023 8.561zm-1.176 5.134a25.5 25.5 0 0 0-.473-9.728c-.533-2.4-1.857-4.49-2.56-6.82-.1-.3-.229-.236-.436-.126a1.6 1.6 0 0 1-1.975-.332 3.123 3.123 0 0 1-.947-1.887c-.118-.835-.177-1.686-.274-2.648-.125.215-.192.333-.259.444a14.365 14.365 0 0 1-.791 1.627c-1.627 1.968-3.137 4.024-4.749 6.007a12.506 12.506 0 0 1-8.285 4.9 4.53 4.53 0 0 0-1.575.236c-1.679.881-3.329 1.8-5.016 2.663-1.294.666-2.618 1.258-3.928 1.9-.162.082-.562.141-.332.415.636.762.2.924-.488 1a.368.368 0 0 0-.1.059 114.988 114.988 0 0 0-11.532 6.813c-.1.067-.267.1-.259.3a.509.509 0 0 0 .148.051c1.908.119 3.817.23 5.733.259 1.56.022 3.114.118 4.667.207 1.968.111 3.936.281 5.9.37 2.774.126 5.548.074 8.322-.007a6.947 6.947 0 0 0 3.388-.555c.088-.052.2-.141.325-.052.71.533 1.561.274 2.323.333a25.278 25.278 0 0 0 4.6-.192 43.037 43.037 0 0 0 6.132-.947 2.767 2.767 0 0 0 2.182-2.338c.126-.643.156-1.301.263-1.952zm-2.8-20.794a2.622 2.622 0 0 0-1.132-3.2 16.291 16.291 0 0 0-3.262-1.745c-.481-.2-.969-.37-1.45-.555-.251-.1-.414-.267-.348-.548a.469.469 0 0 1 .068-.165.453.453 0 0 1 .293-.193.431.431 0 0 1 .179 0 1.857 1.857 0 0 1 .466.1 22.27 22.27 0 0 1 3.58 1.642c.489.3.962.621 1.532.991-.156-1.28-.111-2.522-1.213-3.329a13.374 13.374 0 0 0-3.484-1.731 16.95 16.95 0 0 0-3.411-1.035.425.425 0 0 1-.312-.166.434.434 0 0 1-.077-.164.425.425 0 0 1 0-.181.465.465 0 0 1 .5-.414 1.693 1.693 0 0 1 .474.074 29.414 29.414 0 0 1 5.3 1.916c1.169.569 1.184.547 1.354-.792.17-1.279-.074-1.8-1.272-2.211a20.771 20.771 0 0 0-5.7-1.384 3.049 3.049 0 0 0-1.479.074.381.381 0 0 1-.163.03.393.393 0 0 1-.161-.042.373.373 0 0 1-.128-.105.384.384 0 0 1-.073-.149.541.541 0 0 1-.019-.382.536.536 0 0 1 .241-.3 1.026 1.026 0 0 1 .577-.126 17.351 17.351 0 0 1 3.55.355 21.8 21.8 0 0 1 2.508.7c.133.037.3.17.429-.008a3.984 3.984 0 0 0-.341-1.5 7.775 7.775 0 0 0-2.411-1.3c-.54-.141-1.08-.267-1.612-.444-2.708-.895-5.319-.829-7.634 1.013a23.8 23.8 0 0 0-4.9 5.77c-1.709 2.6-3.336 5.259-5.082 7.826a33.391 33.391 0 0 1-4.867 6.288 1.569 1.569 0 0 1-.784.34c-2.131.51-4.276.969-6.377 1.583-2.064.606-4.112 1.243-6.169 1.864-.007.044-.007.089-.015.133a10.321 10.321 0 0 1 1.066.3c1.154.436 2.419.525 3.535 1.073a19.053 19.053 0 0 1 3.115 2.026c1.834 1.384 3.89 2.508 5.377 4.328.148.192.289.177.5.081 2.8-1.309 5.556-2.715 8.27-4.179.178-.089.385-.156.444-.37.089-.318.326-.362.607-.362a11.535 11.535 0 0 0 9.386-4.587c2.153-2.751 4.535-5.363 6.051-8.58.178-.363.429-.71.9-.644.518.081.6.533.688.947a2.808 2.808 0 0 1 .022.355c.037.74.059 1.472.126 2.212a2.858 2.858 0 0 0 .769 1.952c.473.452.991.341 1.117-.295a23.871 23.871 0 0 1 .849-2.787zm-7.538-17.546a22.232 22.232 0 0 0-1.4-2.921c-1.1-1.916-2.367-3.736-3.432-5.682a13.388 13.388 0 0 1-1.539-3.683 67.708 67.708 0 0 1-1.546-12.2 30.169 30.169 0 0 0-.481-5.466 10.2 10.2 0 0 0-5.9-7.508 14.469 14.469 0 0 0-5.763-1.177c-3.328-.125-6.649-.266-9.964-.6-2.219-.229-4.282-.732-5.88-2.426a6.673 6.673 0 0 0-.836-.673 4.37 4.37 0 0 0-2.182-.91 21.262 21.262 0 0 0-3.884.015c-1.486.1-1.486.1-1.494 1.56 0 1.347 0 1.339 1.339 1.7a1.861 1.861 0 0 0 1.716-.155 13.621 13.621 0 0 0 2.448-2.264.445.445 0 0 1 .526-.192.462.462 0 0 1 .318.517 1.094 1.094 0 0 1-.437.755 48.95 48.95 0 0 1-7.789 6.043 19.248 19.248 0 0 1-11.665 2.567 29.37 29.37 0 0 1-9.542-2.774c-1.635-.754-3.159-1.694-4.742-2.544a12.92 12.92 0 0 1-2.027-1.354c-.266-.207-.5-.473-.251-.806s.57-.17.843.037c.237.185.488.347.71.547a.865.865 0 0 0 1.139.059c.6-.362 1.206-.7 1.828-1.028a.575.575 0 0 0 .34-.658 21.85 21.85 0 0 0-.607-2.863c-.222-.843-.347-.917-1.176-.629-.089.03-.185.074-.274.111a8.757 8.757 0 0 0-4.209 3.758c-.384.7-.732 1.42-1.08 2.138a6.972 6.972 0 0 1-1.486 2.078 6.58 6.58 0 0 1-2.412 1.628c-.873.281-1.309 1.464-2.448 1.117-.059-.023-.148.044-.222.074-.7.244-1.383.51-2.093.725a24.21 24.21 0 0 1-5.541 1.434 6.337 6.337 0 0 0-1.561.1 20.372 20.372 0 0 0 1.7 1.835 7.826 7.826 0 0 1 1.435 1.908 2.908 2.908 0 0 1 .222 2.153 3.1 3.1 0 0 1-3.95 2.241c-.393-.081-.548-.059-.511.392a8.642 8.642 0 0 1 .007 1.317 1.94 1.94 0 0 1-1.671 1.96 2.33 2.33 0 0 0-1.065.5c-.407.325-.814.643-1.214.976a3.294 3.294 0 0 1-2.1.755c-.429.015-1-.237-1 .555a.055.055 0 0 1-.012.027.053.053 0 0 1-.025.017c-.917.629-1.805 1.354-3.025 1.213-.969-.111-.992-.14-1.458.747a13.554 13.554 0 0 0-1.294 8.078 30.2 30.2 0 0 0 2.774 8.684c1.39 3.085 2.981 6.08 4.238 9.232 1.628 4.083 2.234 8.484 4.062 12.5a.436.436 0 0 1 .045.322.428.428 0 0 1-.193.262.469.469 0 0 1-.347.074.463.463 0 0 1-.3-.192 2.5 2.5 0 0 1-.518-.94c-.377-1.117-.762-2.226-1.095-3.351a74.914 74.914 0 0 0-3.358-10.215c-1.243-2.7-2.559-5.363-3.765-8.078-1.627-3.646-2.907-7.389-2.582-11.48a12.038 12.038 0 0 1 1.776-5.829c.266-.407.236-.584-.133-.887a3.68 3.68 0 0 1-.8-5.082c.148-.215.295-.488.569-.481.378.007.385-.163.392-.459a4.806 4.806 0 0 1 1.458-3.61.644.644 0 0 0 .17-.3 12.571 12.571 0 0 1 3.935-5.888 6.1 6.1 0 0 0 1.39-1.827 6.409 6.409 0 0 1 6.3-3.913 29.577 29.577 0 0 1 6.14.925 1.969 1.969 0 0 1 .636.31 21.176 21.176 0 0 1 2.115 1.465 1.5 1.5 0 0 0 1.872.118 8.215 8.215 0 0 0 4.49-4.482 9.508 9.508 0 0 1 1.775-2.893c.185-.207.207-.34-.015-.532-2.3-2.057-4.342-4.4-6.953-6.11a20.763 20.763 0 0 0-9.7-3.795A10.606 10.606 0 0 1 90.8 67.3c-.821-.6-1.686-1.139-2.544-1.679a2.6 2.6 0 0 0-1.006-.466 8.109 8.109 0 0 1 .089 2.885 15.943 15.943 0 0 1-2.752 6.317A54.857 54.857 0 0 1 68.422 90.21a1.858 1.858 0 0 1-.865.384c-.34.008-.37.185-.385.459-.1 2.108-.3 4.216-.325 6.332a147.975 147.975 0 0 0 .429 18.574c.229 2.019.347 4.054.488 6.08.3 4.158.547 8.315.7 12.479.118 2.93.17 5.866.3 8.795a101.127 101.127 0 0 1-.422 14.277 45.092 45.092 0 0 0-.34 8A9.228 9.228 0 0 0 71 172.155c.393.34.77.695 1.154 1.035a32.057 32.057 0 0 1 3.122 2.967 6.114 6.114 0 0 1 1.664 3.817c.059 1.353-.1 2.707-.066 4.061.044 1.664.54 2.285 2.175 2.648a16.792 16.792 0 0 0 5.71-.06 69.267 69.267 0 0 0 14.972-3.3 33.393 33.393 0 0 0 5.34-2.086c.43-.245.533-.43.222-.9a20.563 20.563 0 0 1-2.929-6.894c-.5-2.123-.695-4.29-1.25-6.4-.229-.88-.466-1.073-1.376-1.088a45.191 45.191 0 0 1-10.548-1.22 24.444 24.444 0 0 1-3.9-1.139 2.078 2.078 0 0 1-1.45-1.679 29.956 29.956 0 0 1-.274-3.64c.007-.643.229-.814.858-.666 3.225.733 6.421 1.576 9.624 2.419a18.217 18.217 0 0 0 4.645.777 1.183 1.183 0 0 0-.229-.688c-1.376-2.855-2.826-5.673-4.29-8.492-.415-.791-.792-1.6-1.177-2.418a2.206 2.206 0 0 1-.207-1.339.554.554 0 0 1 .072-.214.543.543 0 0 1 .153-.167.545.545 0 0 1 .434-.086c.3.023.577.252.458.5-.325.673.082 1.169.333 1.672 1.82 3.676 3.743 7.308 5.57 10.985.281.569.511 1.109.747 1.686a43.317 43.317 0 0 1 2.427 9.417 20.809 20.809 0 0 0 3.077 8.107c.148.222.236.451.636.34a.409.409 0 0 1 .559.4.413.413 0 0 1-.1.248c-.215.326-.074.5.1.718a14.131 14.131 0 0 0 3.2 2.951 3.507 3.507 0 0 0 .732.392 19.181 19.181 0 0 0 3.536.836c2.412.414 4.786.629 7.153-.429a106.282 106.282 0 0 0 12.827-6.546c5.666-3.507 11.036-7.457 16.362-11.459.548-.414 1.235-.673 1.531-1.375.059-.156.259-.2.415-.208a1.338 1.338 0 0 0 .747-.34 86.5 86.5 0 0 1 8.114-5.06c1.243-.68 2.486-1.353 3.721-2.048.155-.082.569-.185.259-.422-.377-.289-.57-.725-.91-.991q-1.4-1.077-2.73-2.234a.688.688 0 0 0-.71-.163 55.733 55.733 0 0 0-7.419 2.493 1.5 1.5 0 0 1-.451.155.487.487 0 0 1-.194.01.484.484 0 0 1-.324-.2.486.486 0 0 1-.081-.176c-.074-.281.066-.444.325-.555a34.828 34.828 0 0 1 3.285-1.28c1.405-.429 2.81-.865 4.319-1.324-.754-.673-1.5-1.176-2.2-1.731a2.52 2.52 0 0 0-2.36-.325 62.9 62.9 0 0 0-8.188 2.818c-.326.133-.71.237-.9-.148-.208-.444.155-.629.518-.769 1.708-.659 3.41-1.332 5.163-1.894.976-.311 1.96-.629 3.084-.984-.658-.259-1.161-.481-1.686-.658a8.1 8.1 0 0 0-4.4-.5 43.725 43.725 0 0 0-9.039 3.247.573.573 0 0 0-.2.127.54.54 0 0 0-.126.2c-.1.3-.363.407-.614.532a12.016 12.016 0 0 1-5.888 1.295 56.523 56.523 0 0 0-5.807.029c-4.313.363-8.248 2.042-12.161 3.766-.3.133-.569.251-.769-.082-.2-.318-.037-.577.237-.762a2.932 2.932 0 0 1 .48-.237c1.835-.783 3.692-1.5 5.57-2.174.17-.067.4-.052.548-.318a40.994 40.994 0 0 0-4.424.421 16.83 16.83 0 0 1-3.854.429 1.4 1.4 0 0 1-1.294-2.026 3.278 3.278 0 0 1 .592-.955c.259-.3.517-.584.85-.961-.207.037-.3.059-.392.074a7.377 7.377 0 0 1-2.958.162 1.271 1.271 0 0 1-.8-2.2 6.309 6.309 0 0 1 1.5-1.368c.4-.267.784-.488.644-1.1-.074-.295.14-.606.318-.88a5.308 5.308 0 0 1 1.664-1.524 14.941 14.941 0 0 1 6.191-2.056c.844-.1 1.687-.089 2.619-.133a2.336 2.336 0 0 0-1-.947 3.395 3.395 0 0 1-1.8-2.056c-.577-1.524-1.154-3.055-1.753-4.579-.7-1.761-1.672-3.395-2.448-5.119-.141-.311-.245-.644.133-.836s.584.1.732.407l1.775 3.595c.991 2.005 1.664 4.142 2.486 6.214a2.455 2.455 0 0 0 1.287 1.494 2.784 2.784 0 0 1 1.331 1.168 1.515 1.515 0 0 0 1.531.792c3.24-.022 6.177 1.28 9.114 2.345a64.641 64.641 0 0 1 9.253 4.741.779.779 0 0 0 .379.122.8.8 0 0 0 .391-.077 45.04 45.04 0 0 1 4.66-1.524 4.53 4.53 0 0 1 2.885-.207c.229.081.547.111.628-.311.045-.236.311-.288.526-.355.954-.281 1.908-.562 2.862-.865 3.1-.984 6.251-1.761 9.417-2.493a3.051 3.051 0 0 0 1.849-1.775c.266-2.3.533-4.594.629-6.909.177-4.143.214-8.292.155-12.442-.052-3.61-.2-7.22-.3-10.822-.008-.363.029-.747.488-.74s.474.385.481.74c.03 1.2.074 2.4.089 3.588.014.924.007 1.849.007 2.877a.77.77 0 0 0 .254-.26.785.785 0 0 0 .109-.347c.458-1.509.895-3.025 1.338-4.534.089-.3.222-.592.607-.518s.37.414.34.718a2.605 2.605 0 0 1-.081.347c-.592 1.968-1.169 3.936-1.768 5.9a1.732 1.732 0 0 1-.348.688 1.128 1.128 0 0 0-.254.424 1.115 1.115 0 0 0-.049.493c.192 4.032-.052 8.063-.007 12.1.007 1.072-.111 2.145-.193 3.217-.1 1.369-.222 2.73-.34 4.246.252-.347.429-.577.6-.813 2.375-3.255 4.416-6.732 6.643-10.09a31.147 31.147 0 0 1 4.726-5.777 8.082 8.082 0 0 1 5.556-2.153 26.1 26.1 0 0 1 2.654.242zM166.4 29.376a1.338 1.338 0 0 0 .281-2.2 12.887 12.887 0 0 0-2.174-2.13 48.147 48.147 0 0 0-4.269-2.863 2.466 2.466 0 0 1-1.161-2.567 3.349 3.349 0 0 0-.577-2.434 7.775 7.775 0 0 0-2.175-2.2 17.514 17.514 0 0 0-3.965-1.931 42.6 42.6 0 0 0-16.954-2.286 41.191 41.191 0 0 0-10.206 1.82 12.316 12.316 0 0 0-6.968 4.963 31.32 31.32 0 0 0-1.99 3.743 1.9 1.9 0 0 1-1.531 1.176c-.843.133-1.7.244-2.529.437-5.393 1.242-8.9 4.482-10.216 9.889a21.675 21.675 0 0 0 .118 8.559 82.269 82.269 0 0 0 2.449 10.659 43 43 0 0 0 3.667 9.069.972.972 0 0 0 .761.592 16.838 16.838 0 0 0 2.56.1 7.937 7.937 0 0 1-2.123-5.414A7.4 7.4 0 0 1 111.9 50.4a3.175 3.175 0 0 1 2.589-.835 6.289 6.289 0 0 1 3.018 1.346c.363.259.533.259.622-.215.163-.9.384-1.79.51-2.7.577-4.135 1.139-8.284 1.753-12.419a2.046 2.046 0 0 1 1.191-1.753 1.231 1.231 0 0 1 1.184-.148 1.136 1.136 0 0 0 .525.007 14.133 14.133 0 0 0 4.512-1.516 65.593 65.593 0 0 0 8.744-5.282c.754-.5 1.072-.451 1.582.3s.97 1.509 1.48 2.249a15.475 15.475 0 0 0 8.8 6.317 5.2 5.2 0 0 0 2.13.178c.755-.1.947-.385.836-1.132a21.371 21.371 0 0 0-.68-2.537c-.082-.274-.074-.54.185-.688a.582.582 0 0 1 .4-.084.593.593 0 0 1 .359.2c.155.148.3.318.451.474a6.808 6.808 0 0 0 2.87 1.893c1.243.363 1.716-.007 1.664-1.294-.022-.363-.074-.755.341-.932s.658.155.9.407a12.109 12.109 0 0 0 2.744 2.2 7.1 7.1 0 0 0 2.981 1.006c.466.037.607-.118.437-.592a23.061 23.061 0 0 0-1.554-3.358c-.177-.318-.369-.644-.118-1.006a.851.851 0 0 1 .976-.259 3.676 3.676 0 0 0 3.07-.858zm-8.11 24.876c2.633-2.951 2.012-8.144-.733-9.889-.081 1.834-.384 3.646.133 5.429a9.259 9.259 0 0 1 .6 4.46zm-1.332 1.206a6.782 6.782 0 0 0 .052-4.571 9.485 9.485 0 0 1-.547-3.7c.022-.939.051-1.871.177-3.033.259-.577-.3-.739-.873-.924a5.715 5.715 0 0 0-4.63.414 7.911 7.911 0 0 0-2.871 10.856 4.459 4.459 0 0 0 1.154 1.05 5.828 5.828 0 0 0 7.057.488 1.031 1.031 0 0 0 .481-.58zm-.214-12.967c.155-2.589.31-5.163.466-7.8-2 1.014-3.507.008-5.06-1.08.074.474.14.821.185 1.176a1.653 1.653 0 0 1-.266 1.431 1.648 1.648 0 0 1-1.295.663 6.487 6.487 0 0 1-1.967-.045 15.661 15.661 0 0 1-5.9-2.648 18.631 18.631 0 0 1-5.23-5.91c-.473-.784-.325-.77-1.139-.215a59.066 59.066 0 0 1-9.054 5.326 11.213 11.213 0 0 1-4.875 1.28c-.784-.022-1.08.192-1.228.976-.147.807-.251 1.62-.369 2.427q-.633 4.437-1.25 8.876c-.023.163-.111.407.14.444a5.03 5.03 0 0 0 1.827.17c.348-.081.2-.777.326-1.184a.125.125 0 0 0 .014-.051 8.768 8.768 0 0 1 9.58-6.7 8.894 8.894 0 0 1 7.9 7.072c.066.3-.015.643.222.946a7.353 7.353 0 0 1 2.766-1.938c1.583-.554 3.4-.547 4.424.94 2.215-3.838 5.307-5.547 9.783-4.156zm-1.68 18.409c.481-1.168.91-2.359 1.317-3.691a7.021 7.021 0 0 1-7.094-.481c.023.363.045.622.06.881a2.67 2.67 0 0 1-1.465 2.781 4.177 4.177 0 0 1-4.431-.03.756.756 0 0 0-.954-.007 3.069 3.069 0 0 1-3.551-.436.855.855 0 0 1-.253-.365.841.841 0 0 1-.035-.442.567.567 0 0 1 .547-.532c.3-.015.422.185.459.444a.511.511 0 0 0 .052.2.522.522 0 0 0 .125.163 2 2 0 0 0 2.2.111 1.294 1.294 0 0 1 1.82-.03 3.093 3.093 0 0 0 3.188.252 1.908 1.908 0 0 0 1.331-2.256 6.453 6.453 0 0 0-1.161-2.855 12.785 12.785 0 0 1-1.672-3.292 4.884 4.884 0 0 1-.229-2.064c.045-.318.17-.577.533-.629.643-.088.747-.266.51-.9a1.832 1.832 0 0 0-2.042-1.384 4.876 4.876 0 0 0-3.75 1.953 3.838 3.838 0 0 0-1.043 1.717 8.945 8.945 0 0 1-17.612-.925c-.06-.385-.208-.51-.54-.547-.459-.045-.918-.082-1.369-.156-.333-.052-.466.059-.51.392a7.056 7.056 0 0 1-.311 1.583c-.392 1.028-.444 1.924.592 2.6a.236.236 0 0 1 .044.045c.2.259.3.555.015.8-.259.222-.518.074-.732-.148-.111-.111-.207-.237-.318-.355a10.076 10.076 0 0 0-3.618-2.589 2.433 2.433 0 0 0-2.8.584 6.784 6.784 0 0 0-1.76 6.835 5.151 5.151 0 0 0 5.422 4.276c.355 0 .717.007 1.072.029.3.023.577.126.57.481s-.267.459-.585.459c-.5 0-1 .029-1.494-.015s-.562.089-.429.547c.266.888.533 1.768.792 2.656a377.296 377.296 0 0 1 1.671 5.784c.718 2.589 1.383 5.193 2.057 7.8.118.459.074.969.236 1.405a18.3 18.3 0 0 1 .267 2.271.414.414 0 0 1-.007.168.393.393 0 0 1-.073.151.421.421 0 0 1-.129.108.4.4 0 0 1-.161.047.455.455 0 0 1-.18 0 .443.443 0 0 1-.167-.068.469.469 0 0 1-.127-.128.461.461 0 0 1-.066-.168 5 5 0 0 1-.126-.643c-.022-.185-.1-.259-.274-.163-.525.3-1.05.606-1.627.932.148.111.222.178.3.229a37.269 37.269 0 0 0 9.691 4.172A18.657 18.657 0 0 0 141 87.051a14.233 14.233 0 0 0 3.269-2.145 6.8 6.8 0 0 0 1.494-1.05c-.547-.163-1.006-.3-1.472-.437-.133.533.3 1.014-.022 1.487-.747-.015-.9-.185-.969-.962a41.584 41.584 0 0 1 .007-5.917c.037-.511-.118-.592-.6-.474a25.807 25.807 0 0 1-7.071.562c-2.153-.051-4.283-.428-6.436-.517a5.928 5.928 0 0 1-4.327-2.108 73.7 73.7 0 0 1-6.99-9.025 1.5 1.5 0 0 1-.222-.422.414.414 0 0 1 .009-.3.419.419 0 0 1 .2-.214c.385-.237.614.089.807.392a40.258 40.258 0 0 0 2.145 3.092 57.938 57.938 0 0 0 5.429 6.45 3.715 3.715 0 0 0 2.286 1.066c2.515.236 5.03.576 7.56.65a23.427 23.427 0 0 0 10.274-1.827 6.532 6.532 0 0 0 3.166-2.788 94.128 94.128 0 0 0 5.527-11.664zm-12.412 89.8c-.081-.067-.126-.111-.17-.141a68.7 68.7 0 0 0-7.227-3.713c-.777-.288-1.575-.5-2.33-.851a22.741 22.741 0 0 0-14.106-1.805 10.72 10.72 0 0 0-4.934 2.168 1.823 1.823 0 0 0-.784 1.131c.274-.111.436-.177.6-.251a15.789 15.789 0 0 1 4.956-1.272 40.157 40.157 0 0 1 11.288.85c.318.06.606.185.547.577s-.392.407-.688.37a32.388 32.388 0 0 1-1.775-.3 31.449 31.449 0 0 0-10.223-.407 12.459 12.459 0 0 0-6.494 2.819c-.318.273-.866.577-.7 1.013.185.451.8.355 1.25.326a26.906 26.906 0 0 0 4.934-.873 27.074 27.074 0 0 1 9.247-.622c.673.074 1.346.193 2.012.3a.441.441 0 0 1 .188.052.433.433 0 0 1 .147.129.445.445 0 0 1 .078.178.463.463 0 0 1-.006.2c-.052.295-.3.354-.548.354a2.508 2.508 0 0 1-.473-.059 26.348 26.348 0 0 0-7.028-.229 10.8 10.8 0 0 0-5.237 1.679 5.264 5.264 0 0 0-1.457 1.487c-.421.681-.259 1.013.525 1.028a8.478 8.478 0 0 0 1.369-.1c1.5-.222 2.988-.555 4.5-.629 4.616-.229 9.239-.444 13.862-.362a13.144 13.144 0 0 0 3.092-.244 3.78 3.78 0 0 0 1.717-.666 10.008 10.008 0 0 1 2.167-1.354c.549-.269 1.109-.514 1.701-.783zm-3.913-102.2a7.921 7.921 0 0 0-7.922-7.989 7.692 7.692 0 0 0-7.952 7.67 7.939 7.939 0 0 0 15.874.319zm-28.826 137.251c.31-.245.229-.355-.052-.548a15.2 15.2 0 0 1-3.44-3.2c-.081-.111-.133-.244-.3-.273-.281-.008-.887.606-.8.828.629 1.546 1.014 3.181 1.569 4.757.118.34.229.392.532.2.871-.544 1.684-1.143 2.491-1.764zm-4.727 3c1-.5 1-.5.651-1.554-.444-1.346-.873-2.685-1.324-4.024-.067-.192-.067-.5-.466-.348-1.613.585-3.233 1.132-4.845 1.7-.171.059-.356.111-.311.3.015.1.022.133.029.178.511 1.775.992 3.565 1.606 5.311.126.355.3.281.547.192a39.633 39.633 0 0 0 4.113-1.759zm-.814-100.7c-1-.607-1.8-1.554-2.922-1.835a19.9 19.9 0 0 0-6.013-.828 5.351 5.351 0 0 0-4.7 2.789 14.623 14.623 0 0 0-1.376 3.669 3.626 3.626 0 0 0 .858 3.5 10.756 10.756 0 0 0 5.281 3.045 2 2 0 0 0 2.308-.725 2.107 2.107 0 0 0 .178-2.456 8.934 8.934 0 0 0-1.376-1.723c-.688-.725-1.376-1.45-2.042-2.19-.362-.407-.3-.991.059-.954.518.044.947-.215 1.442-.192 2.962.118 5.559-1.214 8.303-2.101zm-4.32 76.967c.4.044.452-.1.311-.429q-.5-1.221-.976-2.441a.507.507 0 0 0-.209-.278.5.5 0 0 0-.339-.077 22.638 22.638 0 0 1-5.526-.94c-2.714-.7-5.444-1.368-8.166-2.079-.533-.133-.673.015-.607.526a11.417 11.417 0 0 1 .141 1.671 1.884 1.884 0 0 0 1.709 2.02c.111.029.222.074.34.1a44.2 44.2 0 0 0 12.546 1.916 5.433 5.433 0 0 1 .776.01zm-.577 26.052c.185-.066.237-.163.163-.362C99 188.924 98.5 187.1 98 185.277c-.067-.251-.17-.31-.422-.222-.451.156-.917.281-1.376.407-1.827.5-3.691.851-5.54 1.221-.222.044-.577 0-.459.436a33.4 33.4 0 0 0 1.813 5.5c.074.156.147.289.347.244a38.488 38.488 0 0 0 7.112-1.794zm-5.755-89.86a7.327 7.327 0 0 0-.029-2.086c-.03-.3-.252-.377-.474-.481a12.48 12.48 0 0 1-2.966-1.893 5.171 5.171 0 0 1-1.968-3.373 11.093 11.093 0 0 1 .185-2.2 12.816 12.816 0 0 0-3.136 4.587 3.468 3.468 0 0 0 1.235 4.253 10.568 10.568 0 0 0 5.016 2.1 3.073 3.073 0 0 0 1.368-.082 1 1 0 0 0 .769-.821zm-3.02 91.923c.377-.044.429-.17.281-.488a28.808 28.808 0 0 1-1.664-5.163c-.111-.444-.318-.511-.711-.429-1.76.34-3.543.517-5.325.688-.378.029-.481.125-.392.495.362 1.568.821 3.114 1.316 4.645a.6.6 0 0 0 .239.362.6.6 0 0 0 .42.1h1.849a22.532 22.532 0 0 0 3.987-.21zm-5.459-90.067c1.8 1.339 4.12 1.879 5.681-.044-2.915-.8-5.681-1.8-6.828-4.993a3.874 3.874 0 0 0 1.142 5.037zm1.035-34.545c.659-2.626-.31-5.54-3.395-6.354-.177-.044-.34-.118-.51-.177a5.828 5.828 0 0 1-2.678-1.938c-.74-.94-1.361-1.961-2.034-2.952a15.7 15.7 0 0 0-3.27-3.55 4.469 4.469 0 0 0-4.5-.7c-1 .34-1 .348-.607 1.294.089.215.185.437.311.718.207-.266.421-.451.717-.3.281.14.318.429.348.71.1.954.244 1.9.3 2.855a.948.948 0 0 0 .665.932 12.15 12.15 0 0 1 3.2 1.96 22.136 22.136 0 0 1 3.78 4.069 28.061 28.061 0 0 0 6.176 5.873c.341.259.526.222.7-.192a14.259 14.259 0 0 0 .792-2.248zm-3.4 36.512c1.679 1.472 2.441 1.339 4.12 0a5.9 5.9 0 0 1-4.216-3.957 2.677 2.677 0 0 0 .089 3.957zm1.723-32.554c.163-.3.1-.4-.163-.592a28.05 28.05 0 0 1-6.709-6.339 16.213 16.213 0 0 0-1.927-2.286 12.914 12.914 0 0 0-4.752-3.362c-.015.133-.037.207-.037.288a48.123 48.123 0 0 1-.592 6.843.8.8 0 0 0 .429.88 20.8 20.8 0 0 1 4.838 4.594 33.358 33.358 0 0 0 4.72 5.074c.162.141.295.422.554.081a39.4 39.4 0 0 0 3.632-5.181zm-1.834 120.676c.451.148.518-.015.355-.5a33.329 33.329 0 0 1-1.2-4.38c-.074-.347-.207-.451-.555-.436a10.511 10.511 0 0 1-2.722-.259c-.348-.081-.422-.029-.355.318.177.962.333 1.924.481 2.885a2.322 2.322 0 0 0 1.819 1.99 11.154 11.154 0 0 0 2.177.382zM79.836 79.04c.237-.266.266-.451-.015-.681a51.014 51.014 0 0 1-6.036-6.6 16.942 16.942 0 0 0-3.6-3.107c-.466 2.752-.91 5.4-1.369 8.041a.713.713 0 0 0 .049.371.721.721 0 0 0 .232.3c.54.532 1.088 1.057 1.583 1.62a328.67 328.67 0 0 1 3.98 4.623c.229.266.37.37.688.074a71.168 71.168 0 0 0 4.488-4.641zm-3.647 111.681c1.517-.761 1.509-.776 1.184-2.433-.059-.318-.111-.629-.17-.947a.725.725 0 0 0-.215-.481 3.348 3.348 0 0 1-1.073-2.685 9.811 9.811 0 0 1 .037-2.027 6.667 6.667 0 0 0-2.492-6.487c-.289-.244-.563-.51-.844-.762-.887-.806-1.8-1.583-2.655-2.411a9.1 9.1 0 0 1-2.7-5.223 32.207 32.207 0 0 1-.044-8.048c.17-2.041.406-4.083.532-6.132.2-3.425.185-6.857.052-10.289-.118-2.952-.185-5.9-.311-8.847q-.187-4.25-.451-8.485c-.118-1.886-.289-3.772-.422-5.666-.111-1.627-.377-3.247-.5-4.867-.274-3.677-.3-7.375-.311-11.066-.015-3.225.022-6.458.252-9.683.133-1.827.2-3.661.3-5.607-.207.118-.3.177-.4.237a15 15 0 0 1-10.053 2.5c-.34-.045-.266.133-.244.3.1.851.259 1.7.318 2.552.148 2.227.814 4.372.562 6.672-.34 3.048-.288 6.133-.473 9.2-.229 3.765-.444 7.53-.518 11.295-.059 2.952-.281 5.9-.155 8.847a.463.463 0 0 1-.034.27.453.453 0 0 1-.181.2c-.3.14-.244.37-.2.6.251 1.376.5 2.744.769 4.12q1.565 8.189 2.707 16.459c.474 3.454.851 6.916 1.214 10.385.384 3.691.665 7.39.783 11.1A11.8 11.8 0 0 0 61.469 178a5.347 5.347 0 0 1-1.479 6.843c-.836.739-1.754 1.383-2.634 2.071-.3.237-.7.4-.5.925a.282.282 0 0 1-.177.347c-.459.111-.452.489-.518.821-.163.9-.326 1.805-.459 2.708-.155 1.087-.044 1.213 1.095 1.287 1.613.1 3.225.17 4.838.244a49.177 49.177 0 0 0 8.27-.68 19.266 19.266 0 0 0 6.284-1.845zM73.874 84.987c.37-.3.3-.495.037-.806-1.5-1.7-2.981-3.425-4.475-5.141a2.928 2.928 0 0 0-.784-.717.48.48 0 0 0-.074.125c-.356 2.345-.733 4.683-.955 7.042a.458.458 0 0 0 .207.452c.629.488 1.243 1 1.909 1.442a.856.856 0 0 0 1.132-.03q1.52-1.154 3.003-2.367zM69.5 66.761a44.964 44.964 0 0 0 .525-8.285 1.107 1.107 0 0 0-.066-.407 60.733 60.733 0 0 1-2.5-5.8c-.1-.274-.193-.555-.289-.829-.429-1.205-.895-2.4-1.331-3.609-.193-.533-.444-1.08.325-1.406.089-.037.126-.192.17-.3a12.825 12.825 0 0 0 1.14-3.824 7.717 7.717 0 0 0-1.404-5.491 2.489 2.489 0 0 0-2.027-1.11 3.146 3.146 0 0 0-2.892 2.219 11.162 11.162 0 0 0-.71 4.512.657.657 0 0 0 .229.592.424.424 0 0 1 .167.15.429.429 0 0 1-.137.6.6.6 0 0 1-.218.135.593.593 0 0 1-.254.031.594.594 0 0 1-.431-.255 1.5 1.5 0 0 1-.3-.954 12.713 12.713 0 0 1 .178-3.092.992.992 0 0 0-.1-.74 34.07 34.07 0 0 0-7.075-8.686 17.984 17.984 0 0 0-2.634-1.968 5.675 5.675 0 0 0-4.445-.888.441.441 0 0 1-.264.014.454.454 0 0 1-.225-.139c-.2-.259-.318-.1-.458.052-.459.473-.91.946-1.383 1.412a18.619 18.619 0 0 1-6.436 4.15A5.689 5.689 0 0 0 34.9 33.9a8.33 8.33 0 0 1-2.581 1.6c-1.036.384-2.182.525-2.981 1.405a.387.387 0 0 1-.163.082 6.283 6.283 0 0 1-5.636-.326.284.284 0 0 0-.113-.065.269.269 0 0 0-.246.051.264.264 0 0 0-.078.1 18.415 18.415 0 0 0-3.129 6.014 2.143 2.143 0 0 0-.066 1.294c.717 2.049 1.353 4.128 2.2 6.132a9.118 9.118 0 0 0 3.085 4.32 7.9 7.9 0 0 1 3.291 4.483 15.92 15.92 0 0 0 5.245 7.419 29.73 29.73 0 0 0 8.2 4.616 10.578 10.578 0 0 0 8.736-.289 34.394 34.394 0 0 0 6.184-3.624 22.321 22.321 0 0 0 6.139-6.931A35.991 35.991 0 0 0 66 51.952c.1-.34.133-.8.643-.666a.418.418 0 0 1 .181.081.425.425 0 0 1 .123.156 1.485 1.485 0 0 1-.015.673 2.576 2.576 0 0 1-.111.407c-.207.7-.422 1.413-.614 2.123a23.268 23.268 0 0 1-8.832 13.2 36.252 36.252 0 0 1-4.631 2.855c-.377.192-.355.311-.044.555a9.991 9.991 0 0 1 1.561 1.649c1.834 2.353 3.092 5.06 4.675 7.575a.44.44 0 0 1 .1.339.447.447 0 0 1-.059.171.562.562 0 0 1-.293.225.444.444 0 0 1-.2.011.435.435 0 0 1-.18-.072.444.444 0 0 1-.134-.142 7.816 7.816 0 0 1-.562-.843c-1.006-1.672-1.909-3.4-3.048-5.022a4.756 4.756 0 0 0 .111 2.278.483.483 0 0 1 .057.261.47.47 0 0 1-.094.249.953.953 0 0 0-.14.688c.111 1.65.214 3.3.332 4.949.067.843.074.851.94.888a17.073 17.073 0 0 0 7.434-1.505 27.087 27.087 0 0 0 3.691-2.2.822.822 0 0 0 .444-.629c.4-2.456.643-4.934 1.139-7.382.4-2.002.71-4.036 1.026-6.063zm-.14-28.834a14.488 14.488 0 0 0 .37-6.095 29.088 29.088 0 0 0-4.444-10.822 20.2 20.2 0 0 0-6.5-6.82 8.963 8.963 0 0 0-8.026-.917.95.95 0 0 0-.7.843c-.1.71-.222 1.413-.355 2.115a20.807 20.807 0 0 1-4.232 9.9c-.022.029-.014.1-.022.17a7.876 7.876 0 0 1 5.829 1.709 33.07 33.07 0 0 1 8.389 9.172c.118.192.184.436.465.577a6.838 6.838 0 0 1 .925-1.591 3.583 3.583 0 0 1 5.851.134 7.234 7.234 0 0 1 1.08 2.115c.222.681.355 1.376.607 2.086.262-.86.543-1.711.765-2.576zm.074 50.433c-.5-.354-.9-.636-1.3-.924-.148-.111-.215-.178-.4.037a2.5 2.5 0 0 0-.421 1.738c-.015.348.259.377.5.222.535-.333 1.046-.688 1.623-1.073zm-2.39-6.368a.689.689 0 0 0-.473.207 17.7 17.7 0 0 1-11.19 3.291c-.4-.014-.407.134-.37.452.119.946.229 1.893.3 2.847.134 1.547.3 1.7 1.85 1.732.14 0 .281 0 .421-.008a16.217 16.217 0 0 0 7.618-2.352c.851-.548 1.576-1.073 1.391-2.227a1.432 1.432 0 0 1 .037-.236c.145-1.221.278-2.442.418-3.706zm-5.91 98.869a5.774 5.774 0 0 0-.7-2.818 9.975 9.975 0 0 1-.94-4.409c-.066-3.284-.318-6.568-.636-9.838-.325-3.41-.74-6.813-1.154-10.215-.525-4.335-1.22-8.64-1.982-12.938-.622-3.506-1.28-7.012-1.923-10.518-.06-.3-.1-.644.229-.792.311-.133.333-.348.34-.614.111-3.691.215-7.375.341-11.066.066-1.953.184-3.9.288-5.851.133-2.508.281-5.015.429-7.523a1.26 1.26 0 0 0-.289-.873c-.939-1.242-1.886-2.478-2.759-3.765-.865-1.257-1.893-2.4-2.655-3.743-.592-1.036-1.272-2.027-1.872-3.055a30.382 30.382 0 0 1-3.98-10.193c-.126-.769-.207-1.546-.318-2.419-.31.244-.532.407-.74.584a58.33 58.33 0 0 1-11.924 7.923 14.053 14.053 0 0 0-7.463 15.645 14.174 14.174 0 0 1 .436 6.443.971.971 0 0 0 .555 1.094c.5.289.984.607 1.479.91.148.089.274.244.481.163a1.018 1.018 0 0 1 .446-.024 1 1 0 0 1 .412.172 25.59 25.59 0 0 1 3.048 1.775 9.423 9.423 0 0 1 3.565 4.749 16.242 16.242 0 0 1 .636 2.426 10.8 10.8 0 0 0 1.968 4.823 9.217 9.217 0 0 1 1.635 3.943c.1.547.207 1.094.281 1.649.052.363.148.518.569.429a10.58 10.58 0 0 1 2.323-.155 1.877 1.877 0 0 1 1.827 1.287 4.033 4.033 0 0 1 .267 1.287 56.249 56.249 0 0 1-.193 5.674 9.745 9.745 0 0 0 .629 5.037 10.65 10.65 0 0 1 1.065 3.211c.222 1.945.769 3.824 1.147 5.74a33.23 33.23 0 0 0 2.707 9.128 9.091 9.091 0 0 1 .666 5.673 38.184 38.184 0 0 1-1.206 5.06c-.118.429.067.947-.192 1.265a14.74 14.74 0 0 0-1.243 2.308 28.532 28.532 0 0 1-4.645 5.747c-.156.148-.355.252-.444.526.288 0 .525.022.762 0a20.681 20.681 0 0 1 5.777.229 57.721 57.721 0 0 1 7.042 1.879c.236.066.451.162.673-.023a43.613 43.613 0 0 0 3.832-3.054 4.307 4.307 0 0 0 1.405-2.893zM60.929 12a1.087 1.087 0 0 0-.311-1.39 2.929 2.929 0 0 0-1.013-.489c-.888-.31-.984-.754-.326-1.435.3-.3.585-.6.866-.917a2.479 2.479 0 0 0 .6-1.213 1.392 1.392 0 0 0-.392-1.368 1.226 1.226 0 0 0-1.346-.156 4.786 4.786 0 0 0-.6.266 4.208 4.208 0 0 1-3.529.193c-.806-.289-1.6-.607-2.419-.873a6.588 6.588 0 0 0-3.277-.444 10.494 10.494 0 0 0-6.428 4.032 11.084 11.084 0 0 0-.654 1.065c.325-.111.51-.185.7-.244a4.955 4.955 0 0 1 5.748 1.634 7.686 7.686 0 0 1 1.013 1.472c.193.385.377.444.784.281a9.9 9.9 0 0 1 8.477.651c.947.489 1.029.5 1.672-.355a4.909 4.909 0 0 0 .435-.71zm-5.452 90.008a24.1 24.1 0 0 0-.126-5.274c-.059-.311-.17-.4-.473-.355-.68.1-1.376.17-2.064.274-1.242.185-1.25.192-.517 1.213 1.006 1.4 2.019 2.8 3.025 4.194.052-.015.103-.037.155-.052zm-.2 86.635c.171-.6-.014-.784-.5-.932-1.028-.311-2.064-.6-3.077-.94-.451-.148-.629-.074-.732.407-.578 2.619-.97 5.275-1.347 7.938-.037.251.022.369.281.4 1.147.133 2.286.274 3.433.407a.087.087 0 0 1 .007-.045h.592c.266.008.392-.111.414-.384.067-.895.141-1.79.244-2.678a25.611 25.611 0 0 1 .685-4.173zm-.5-93.211c.333-.029.377-.163.333-.466-.215-1.576-.407-3.151-.614-4.727-.118-.909-.126-.909-1.213-.9a20.478 20.478 0 0 0-5.267 1.036c-.333.1-.274.244-.155.473a56.314 56.314 0 0 0 2.914 4.86.477.477 0 0 0 .592.244 23.238 23.238 0 0 1 3.415-.52zm-.917-7.057c.377-.007.414-.17.377-.48-.126-1.243-.266-2.493-.355-3.743-.081-1.287.111-1.273-1.309-1.214-.9.1-1.783.178-2.671.3a20.879 20.879 0 0 0-4.12.961c-.392.148-.54.341-.392.8a33.9 33.9 0 0 0 1.465 3.847c.347.754.355.776 1.146.525a19.72 19.72 0 0 1 5.864-.996zm-.577-6.391c.347-.015.429-.1.4-.444a69.329 69.329 0 0 1-.162-3.284c-.008-.325-.1-.51-.422-.606a23.8 23.8 0 0 0-7.908-.984.472.472 0 0 0-.2.021.478.478 0 0 0-.176.1.5.5 0 0 0-.117.168.482.482 0 0 0-.035.2 12.091 12.091 0 0 0-.111 2.057 17.362 17.362 0 0 0 .377 3.831c.037.185 0 .459.385.318a25.645 25.645 0 0 1 7.974-1.377zm.429-8.018a1.668 1.668 0 0 0-.119-.244 9.186 9.186 0 0 0-1.871-1.916.757.757 0 0 0-.88-.067 7.668 7.668 0 0 1-2.842.829 1.216 1.216 0 0 0-.792.347 5.888 5.888 0 0 0-1.8 2.249c-.059.17-.406.244-.273.466.111.185.362.059.555.052a28.555 28.555 0 0 1 3.639.2 21.674 21.674 0 0 1 3.743.733c.14.044.429.251.436-.133a9.7 9.7 0 0 1 .209-2.516zM50.1 186.705c.066-.259.014-.355-.237-.414a24.258 24.258 0 0 0-4.483-.7.558.558 0 0 0-.592.363 11.357 11.357 0 0 0-.843 2.848 27.82 27.82 0 0 0-.645 3.898c-.037.31-.126.613-.533.569a.237.237 0 0 1-.111-.022c-.274-.082-.3-.333-.288-.6.014-.318.029-.636.074-.947a35.744 35.744 0 0 1 1.22-5.659c.118-.377-.015-.473-.355-.436-.673.066-1.346.17-2.019.192a2.712 2.712 0 0 0-1.857.806 2.828 2.828 0 0 1-1.65.785c-.288.029-.362.192-.407.421-.192 1.08-.273 2.175-.406 3.566-.059.318.185.65.821.791.776.17 1.524.451 2.293.681q1.231.369 2.463.754c1.842.57 3.684 1.139 5.57 1.568.326.074.548.119.6-.34a77.249 77.249 0 0 1 1.385-8.124zM49.071 14.382c.067-.377-.081-.74-.488-.784a3.707 3.707 0 0 1-.851-.229 23.457 23.457 0 0 0-8.077-1.983 11.166 11.166 0 0 0-4.712.947 20.575 20.575 0 0 0-8.618 7.353c-1.457 2.093-1.9 4.557-2.655 6.909a18.551 18.551 0 0 0-1.021 6.1 3.447 3.447 0 0 0 1.968 3.432 4.623 4.623 0 0 0 4.815-.547 4.169 4.169 0 0 1 1.28-.614c.384-.118.8-.022 1.161-.222a14.917 14.917 0 0 0 3.669-2.737c.178-.192.385-.347.629-.221.281.147.488.014.725-.082a20.932 20.932 0 0 0 7.316-5.57c3.018-3.349 4.157-7.454 4.859-11.752zm-.858 156.508a13.346 13.346 0 0 0 .333-3.558 11.434 11.434 0 0 0-1.2-3.928 14.479 14.479 0 0 1-1.265-3.284c-.629-2.937-1.25-5.881-1.908-8.825-.1-.451.081-1.169-.3-1.287-.333-.111-.725.518-1.072.843a11.98 11.98 0 0 1-6.872 3.433 22.337 22.337 0 0 1-12.871-1.924 7.293 7.293 0 0 0-1.1-.444c-.429-.125-.548.052-.629.377a4.465 4.465 0 0 0-.111.533 21.288 21.288 0 0 0-.074 3.943 21.952 21.952 0 0 1-.666 7.937 36.06 36.06 0 0 0-1.353 8.6 3.563 3.563 0 0 0 .747 2.182c1.8 2.737 3.558 5.489 5.562 8.085a3.462 3.462 0 0 0 2.064 1.3c2.878.673 5.8 1.035 8.714 1.509.244.037.451.059.629-.192s.488-.319.658-.06c.251.378.5.237.755.089a4.852 4.852 0 0 0 .687-.466 39.214 39.214 0 0 0 6.029-6.3 13.222 13.222 0 0 0 2.02-3.773 35.307 35.307 0 0 0 1.223-4.79zm.466-158.19c-1.523-3.307-4.5-3.669-6.716-2.108a35.09 35.09 0 0 1 6.716 2.108zM43.413 149a.51.51 0 0 0 .165-.274.5.5 0 0 0-.032-.318 12.24 12.24 0 0 0-.762-2.323 7 7 0 0 1-.658-3.247c.044-2.175.332-4.335.288-6.51a6.054 6.054 0 0 0-.185-1.783 1.069 1.069 0 0 0-1.05-.806 13.627 13.627 0 0 0-2.264.171c-.163.022-.34.059-.318.281.074.658.155 1.309.252 2.078.155-.2.229-.288.3-.385.214-.288.473-.562.835-.281.326.259.141.577-.044.851-.422.606-.814 1.235-1.287 1.8a1.163 1.163 0 0 0-.281 1.14c.9 3.72 1.568 7.486 2.33 11.236.044.237.155.518-.178.666h-.007v.007c-.533.244-.681-.133-.762-.518-.214-.991-.4-1.99-.6-2.988-.525-2.634-1.028-5.274-1.665-7.886-.037-.185.023-.517-.362-.333a9.427 9.427 0 0 1-4.453.644c-.533-.015-.636.111-.481.629a52.076 52.076 0 0 1 1.724 8.233c.163 1.183.311 2.374.481 3.55.051.378.1.8.628.77a9.74 9.74 0 0 0 5.26-1.738c.133-.089.273-.171.229-.363h.005c.2.1.333-.037.466-.156.813-.725 1.613-1.442 2.426-2.147zm-5.733-11.079a.9.9 0 0 0 .19-.323.886.886 0 0 0 .039-.372c-.052-1.132-.2-2.256-.318-3.388a13.837 13.837 0 0 0-2.626-7.449 6.155 6.155 0 0 1-1.072-2.515 90.392 90.392 0 0 1-.5-2.278 9.262 9.262 0 0 0-4.771-6.606l-1.265-.688c-.119-.067-.252-.17-.385-.111-.532.229-.91-.067-1.316-.34a21.063 21.063 0 0 0-12.775-4.039 8.806 8.806 0 0 0-3.521.851 4.01 4.01 0 0 0-1.546 1.2.888.888 0 0 0-.081 1.162.9.9 0 0 0 .325.266 2.854 2.854 0 0 0 1.339.466c1.132.125 2.263.266 3.388.347a5.476 5.476 0 0 1 4.689 2.745 7.476 7.476 0 0 0 1.539 2.049c.244.2.392.443.192.717-.221.3-.54.237-.8.03a3.674 3.674 0 0 1-.591-.585 14.471 14.471 0 0 1-.992-1.427c-.229-.4-.458-.422-.85-.229a17.6 17.6 0 0 0-2.064 1.08 40.983 40.983 0 0 0-8.662 7.759 21.143 21.143 0 0 0-3.743 5.814 6.161 6.161 0 0 0-.525 2.915c.029.288.044.65.348.776.288.119.5-.177.71-.347a18.614 18.614 0 0 0 2.441-2.782 31.465 31.465 0 0 1 8.847-7.87c.288-.163.591-.363.85-.03.244.311.074.6-.177.843a33.207 33.207 0 0 0-5.422 6.969 19.736 19.736 0 0 0-2.752 6.457 3.513 3.513 0 0 0-.126 1.3c.089.547.311.673.836.466a3.248 3.248 0 0 0 1.013-.732 25.029 25.029 0 0 0 2.456-2.848 36.828 36.828 0 0 1 6.022-6.31c.2-.163.392-.34.6-.488a.519.519 0 0 1 .71.007.523.523 0 0 1 .029.711 1.937 1.937 0 0 1-.214.288 46.76 46.76 0 0 0-4.12 5.94 18.966 18.966 0 0 0-2.545 5.844 1.905 1.905 0 0 0-.029.71c.1.577.355.7.88.444a3.591 3.591 0 0 0 .858-.637 37.38 37.38 0 0 0 3.417-3.765 37.124 37.124 0 0 1 5.089-5.133c.289-.222.592-.511.947-.156.326.326.119.666-.1.962-.3.407-.607.792-.895 1.2a22.34 22.34 0 0 0-3.558 6.4 3.88 3.88 0 0 0-.237 1.59c.037.392.222.518.607.37a4.115 4.115 0 0 0 1.205-.762 27.336 27.336 0 0 0 3.211-3.462 12.349 12.349 0 0 1 5.688-4.209c.4-.125.777-.318 1.161-.48a33.16 33.16 0 0 1 3.788-1.473c.325-.1.621-.074.732.289.1.34-.133.518-.422.621-.111.045-.229.082-.34.119-2.027.666-3.943 1.62-5.925 2.4a2.64 2.64 0 0 0-.318.193c.081.051.126.111.178.118a36.321 36.321 0 0 0 7.9.747 4.507 4.507 0 0 0 3.358-1.324zm-1.272 49.908c.059-.34-.06-.466-.378-.51-1.5-.215-3-.444-4.534-.673-.274-.1-.34-.008-.363.333a24.83 24.83 0 0 1-.31 2.426.644.644 0 0 0-.029.279.654.654 0 0 0 .547.572l4.29 1.287c.251.074.4.066.414-.274a26.662 26.662 0 0 1 .363-3.44zm-3.24-34.293c.355.015.384-.17.34-.451a49.17 49.17 0 0 1-.333-2.3 62.45 62.45 0 0 0-2.064-10.3.481.481 0 0 0-.169-.291.487.487 0 0 0-.319-.109c-1.265-.17-2.522-.37-3.78-.562-.569-.081-.7.03-.569.614.192.91.421 1.82.621 2.737.688 3.151 1.472 6.295 1.006 9.564-.081.548.118.652.577.74a17.817 17.817 0 0 0 3.321.355c.459.003.917-.012 1.369.003zm-6.214-1.058a16.472 16.472 0 0 0 .059-3.572c-.333-3.3-1.331-6.473-1.9-9.809a16.874 16.874 0 0 0-1.709 1.576 1.206 1.206 0 0 0-.369 1.279c.347 1.576.658 3.159.984 4.742a3.989 3.989 0 0 1-.518 3.151c-.222.333-.407.688-.614 1.028-.1.156-.133.274.081.378a25.226 25.226 0 0 0 3.662 1.457c.235.066.294.022.324-.23zM23.329 24.361c.074-.222.23-.437.111-.688a.214.214 0 0 0-.1.037 10.52 10.52 0 0 0-.348.481 28.106 28.106 0 0 0-3.343 7.182 21.48 21.48 0 0 0-1.2 7.634 7.411 7.411 0 0 0 .74 2.752 22.991 22.991 0 0 1 3.225-5.711.394.394 0 0 0 .1-.24.4.4 0 0 0-.073-.248 7.264 7.264 0 0 1-.687-4.409 30.852 30.852 0 0 1 1.575-6.79z"></path><path class="b" d="M198.323 151.34a25.494 25.494 0 0 1 .473 9.727c-.1.651-.133 1.309-.259 1.953a2.768 2.768 0 0 1-2.182 2.337 43.037 43.037 0 0 1-6.132.947 25.278 25.278 0 0 1-4.6.192c-.762-.059-1.613.2-2.323-.333-.126-.089-.237 0-.325.052a6.947 6.947 0 0 1-3.388.555c-2.774.081-5.548.133-8.322.007-1.967-.088-3.935-.259-5.9-.37-1.553-.088-3.107-.185-4.667-.207-1.916-.029-3.825-.14-5.733-.259a.509.509 0 0 1-.148-.051c-.008-.2.155-.237.259-.3a114.979 114.979 0 0 1 11.532-6.812.349.349 0 0 1 .1-.06c.687-.074 1.124-.236.488-1-.23-.274.17-.333.332-.415 1.31-.643 2.634-1.235 3.928-1.9 1.687-.866 3.337-1.783 5.016-2.663a4.508 4.508 0 0 1 1.575-.237 12.506 12.506 0 0 0 8.285-4.9c1.612-1.983 3.121-4.039 4.749-6.007a14.365 14.365 0 0 0 .791-1.627c.067-.111.134-.229.259-.444.1.962.156 1.813.274 2.648a3.123 3.123 0 0 0 .947 1.887 1.6 1.6 0 0 0 1.975.332c.207-.11.34-.177.436.126.703 2.331 2.027 4.418 2.56 6.822z"></path><path class="c" d="M194.861 137.07a2.622 2.622 0 0 1 1.132 3.2 23.871 23.871 0 0 0-.851 2.782c-.126.636-.644.747-1.117.295a2.858 2.858 0 0 1-.769-1.952c-.067-.74-.089-1.472-.126-2.212a2.808 2.808 0 0 0-.022-.355c-.089-.414-.17-.866-.688-.947-.474-.066-.725.281-.9.644-1.516 3.217-3.9 5.829-6.051 8.58a11.535 11.535 0 0 1-9.386 4.587c-.281 0-.518.044-.607.362-.059.214-.266.281-.444.37a159.977 159.977 0 0 1-8.27 4.179c-.214.1-.355.111-.5-.081-1.487-1.82-3.543-2.944-5.377-4.328a19.053 19.053 0 0 0-3.115-2.026c-1.116-.548-2.381-.637-3.535-1.073a10.321 10.321 0 0 0-1.066-.3c.008-.044.008-.089.015-.133 2.057-.621 4.1-1.257 6.169-1.864 2.1-.614 4.246-1.073 6.377-1.583a1.569 1.569 0 0 0 .784-.34 33.391 33.391 0 0 0 4.867-6.288c1.746-2.567 3.373-5.222 5.082-7.826a23.8 23.8 0 0 1 4.9-5.77c2.315-1.842 4.926-1.908 7.634-1.013.532.177 1.072.3 1.612.444a7.775 7.775 0 0 1 2.411 1.3 3.984 3.984 0 0 1 .341 1.5c-.133.178-.3.045-.429.008a21.8 21.8 0 0 0-2.508-.7 17.351 17.351 0 0 0-3.55-.355 1.026 1.026 0 0 0-.577.126.536.536 0 0 0-.241.3.541.541 0 0 0 .019.382.384.384 0 0 0 .073.149.373.373 0 0 0 .128.105.388.388 0 0 0 .324.013 3.026 3.026 0 0 1 1.479-.074 20.733 20.733 0 0 1 5.7 1.383c1.2.407 1.442.932 1.272 2.211-.17 1.339-.185 1.362-1.354.792a29.414 29.414 0 0 0-5.3-1.916 1.693 1.693 0 0 0-.474-.074.465.465 0 0 0-.5.414.425.425 0 0 0 0 .181.434.434 0 0 0 .077.164.425.425 0 0 0 .312.166 17.015 17.015 0 0 1 3.411 1.035 13.374 13.374 0 0 1 3.484 1.731c1.1.807 1.057 2.049 1.213 3.329-.57-.37-1.043-.7-1.532-.991a22.27 22.27 0 0 0-3.58-1.642 1.857 1.857 0 0 0-.466-.1.431.431 0 0 0-.179 0 .453.453 0 0 0-.293.193.469.469 0 0 0-.068.165c-.066.282.1.452.348.548.481.185.969.355 1.45.555a16.291 16.291 0 0 1 3.261 1.75z"></path><path class="b" d="M187.057 119.806a22.232 22.232 0 0 1 1.4 2.921 26.1 26.1 0 0 0-2.648-.244 8.078 8.078 0 0 0-5.555 2.153 31.113 31.113 0 0 0-4.727 5.777c-2.227 3.358-4.268 6.835-6.643 10.09-.17.236-.347.466-.6.813.118-1.516.244-2.877.34-4.246.082-1.072.2-2.145.193-3.217-.045-4.032.2-8.063.007-12.1a1.115 1.115 0 0 1 .049-.493 1.128 1.128 0 0 1 .254-.424 1.732 1.732 0 0 0 .348-.688c.6-1.967 1.176-3.935 1.768-5.9a2.605 2.605 0 0 0 .081-.347c.03-.3.059-.636-.34-.718s-.518.215-.607.518c-.443 1.509-.88 3.025-1.338 4.534a.785.785 0 0 1-.109.347.77.77 0 0 1-.254.26c0-1.028.007-1.953-.007-2.877-.015-1.191-.059-2.39-.089-3.588-.007-.355-.022-.74-.481-.74s-.5.377-.488.74c.1 3.6.251 7.212.3 10.822.06 4.15.022 8.3-.155 12.442-.1 2.315-.363 4.608-.629 6.909a3.051 3.051 0 0 1-1.849 1.775c-3.166.732-6.317 1.509-9.417 2.493-.954.3-1.908.584-2.862.865-.215.067-.481.119-.526.355-.081.422-.4.392-.628.311a4.53 4.53 0 0 0-2.885.207 45.04 45.04 0 0 0-4.66 1.524.8.8 0 0 1-.391.077.779.779 0 0 1-.379-.122 64.641 64.641 0 0 0-9.253-4.741c-2.937-1.065-5.874-2.367-9.114-2.345a1.515 1.515 0 0 1-1.531-.792 2.784 2.784 0 0 0-1.331-1.168 2.455 2.455 0 0 1-1.287-1.494c-.822-2.072-1.5-4.209-2.486-6.214l-1.775-3.595c-.148-.3-.348-.592-.732-.407s-.274.525-.133.836c.776 1.724 1.752 3.358 2.448 5.119.6 1.524 1.176 3.055 1.753 4.579a3.395 3.395 0 0 0 1.8 2.056 2.336 2.336 0 0 1 1 .947c-.932.044-1.775.03-2.619.133a14.941 14.941 0 0 0-6.191 2.056 5.308 5.308 0 0 0-1.664 1.524c-.178.274-.392.585-.318.88.14.615-.244.836-.644 1.1a6.33 6.33 0 0 0-1.5 1.368 1.271 1.271 0 0 0 .8 2.2 7.377 7.377 0 0 0 2.958-.162c.1-.015.185-.037.392-.074-.333.377-.591.665-.85.961a3.278 3.278 0 0 0-.592.955 1.4 1.4 0 0 0 .076 1.378 1.4 1.4 0 0 0 1.218.648 16.83 16.83 0 0 0 3.854-.429 40.994 40.994 0 0 1 4.424-.421c-.148.266-.378.251-.548.318a100.924 100.924 0 0 0-5.57 2.174 2.932 2.932 0 0 0-.48.237c-.274.185-.437.444-.237.762.2.333.466.215.769.082 3.913-1.724 7.848-3.4 12.161-3.766a56.523 56.523 0 0 1 5.807-.029 12.016 12.016 0 0 0 5.888-1.295c.251-.125.518-.229.614-.532a.54.54 0 0 1 .126-.2.573.573 0 0 1 .2-.127A43.725 43.725 0 0 1 150 149.32a8.1 8.1 0 0 1 4.4.5c.525.177 1.028.4 1.686.658-1.124.355-2.108.673-3.084.984-1.753.562-3.455 1.235-5.163 1.894-.363.14-.725.325-.518.769.185.385.569.281.9.148a62.9 62.9 0 0 1 8.188-2.818 2.52 2.52 0 0 1 2.36.325c.7.555 1.45 1.058 2.2 1.731-1.509.459-2.914.895-4.319 1.324a34.828 34.828 0 0 0-3.285 1.28c-.259.111-.4.274-.325.555a.486.486 0 0 0 .081.176.484.484 0 0 0 .324.2.487.487 0 0 0 .194-.01 1.5 1.5 0 0 0 .451-.155 55.733 55.733 0 0 1 7.419-2.493.688.688 0 0 1 .71.163q1.332 1.153 2.73 2.234c.34.266.533.7.91.991.31.237-.1.34-.259.422-1.235.695-2.478 1.368-3.721 2.048a86.5 86.5 0 0 0-8.114 5.06 1.338 1.338 0 0 1-.747.34c-.156.008-.355.052-.415.208-.3.7-.983.961-1.531 1.375-5.326 4-10.7 7.952-16.362 11.459a106.282 106.282 0 0 1-12.827 6.546c-2.367 1.058-4.741.843-7.153.429a19.181 19.181 0 0 1-3.536-.836 3.507 3.507 0 0 1-.732-.392 14.131 14.131 0 0 1-3.2-2.951c-.177-.222-.318-.392-.1-.718a.413.413 0 0 0 .1-.248.41.41 0 0 0-.559-.4c-.4.111-.488-.118-.636-.34a20.809 20.809 0 0 1-3.077-8.107 43.317 43.317 0 0 0-2.427-9.417 25.548 25.548 0 0 0-.747-1.686c-1.827-3.677-3.75-7.309-5.57-10.985-.251-.5-.658-1-.333-1.672.119-.244-.163-.473-.458-.5a.6.6 0 0 0-.245.008.6.6 0 0 0-.221.1l-.466-.576a.541.541 0 0 0 .259-.082.428.428 0 0 0 .193-.262.436.436 0 0 0-.045-.322c-1.828-4.017-2.434-8.418-4.062-12.5-1.257-3.152-2.848-6.147-4.238-9.232a30.2 30.2 0 0 1-2.774-8.684 13.554 13.554 0 0 1 1.294-8.078c.466-.887.489-.858 1.458-.747 1.22.141 2.108-.584 3.025-1.213a.053.053 0 0 0 .025-.017.055.055 0 0 0 .012-.027c0-.792.57-.54 1-.555a3.294 3.294 0 0 0 2.1-.755c.4-.333.807-.651 1.214-.976a2.33 2.33 0 0 1 1.065-.5 1.94 1.94 0 0 0 1.671-1.96 8.642 8.642 0 0 0-.007-1.317c-.037-.451.118-.473.511-.392a3.1 3.1 0 0 0 3.95-2.241 2.908 2.908 0 0 0-.222-2.153 7.826 7.826 0 0 0-1.435-1.908 20.372 20.372 0 0 1-1.7-1.835 6.337 6.337 0 0 1 1.561-.1 24.21 24.21 0 0 0 5.541-1.434c.71-.215 1.4-.481 2.093-.725.074-.03.163-.1.222-.074 1.139.347 1.575-.836 2.448-1.117a6.572 6.572 0 0 0 2.412-1.628 6.972 6.972 0 0 0 1.486-2.078c.348-.718.7-1.435 1.08-2.138a8.757 8.757 0 0 1 4.209-3.758c.089-.037.185-.081.274-.111.829-.288.954-.214 1.176.629a21.85 21.85 0 0 1 .607 2.863.575.575 0 0 1-.34.658c-.622.326-1.228.666-1.828 1.028a.865.865 0 0 1-1.139-.059c-.222-.2-.473-.362-.71-.547-.273-.207-.584-.363-.843-.037s-.015.6.251.806a12.92 12.92 0 0 0 2.027 1.354c1.583.85 3.107 1.79 4.742 2.544a29.37 29.37 0 0 0 9.542 2.774 19.248 19.248 0 0 0 11.665-2.567 48.95 48.95 0 0 0 7.789-6.043 1.094 1.094 0 0 0 .437-.755.462.462 0 0 0-.318-.517.443.443 0 0 0-.525.192 13.66 13.66 0 0 1-2.449 2.264 1.861 1.861 0 0 1-1.716.155c-1.339-.363-1.339-.355-1.339-1.7.008-1.464.008-1.457 1.494-1.56a21.262 21.262 0 0 1 3.884-.015 4.37 4.37 0 0 1 2.182.91 6.673 6.673 0 0 1 .836.673c1.6 1.694 3.661 2.2 5.88 2.426 3.315.333 6.636.474 9.964.6a14.469 14.469 0 0 1 5.763 1.177 10.2 10.2 0 0 1 5.9 7.508 30.169 30.169 0 0 1 .481 5.466 67.708 67.708 0 0 0 1.546 12.2 13.388 13.388 0 0 0 1.539 3.683c1.049 1.936 2.314 3.756 3.416 5.672zm-34.071-35.218c.2-.244.325-.547.044-.8s-.532-.081-.769.155a31.975 31.975 0 0 1-6.724 5.223c-.5.281-.991.6-1.479.91a.482.482 0 0 0-.244.554c.051.23.236.3.51.333a3.258 3.258 0 0 0 .436-.192 36.45 36.45 0 0 0 6.806-4.823 14.6 14.6 0 0 0 1.42-1.36zm-11.125 7.634c.355-.089.688-.252.577-.681s-.481-.34-.792-.259c-1.1.281-2.2.57-3.292.881a22.414 22.414 0 0 1-14.6-.459c-1.842-.71-3.684-1.4-5.511-2.145a12.974 12.974 0 0 1-4.254-2.242.428.428 0 0 0-.554-.059.48.48 0 0 0-.191.262.473.473 0 0 0 .021.323 1.155 1.155 0 0 0 .443.547 8.035 8.035 0 0 0 1.746 1.036c2.4 1.117 4.926 1.952 7.367 2.966a23.283 23.283 0 0 0 8.655 1.738 27.712 27.712 0 0 0 3.062-.185 65.376 65.376 0 0 0 7.323-1.723zM112.1 114.805a.509.509 0 0 0 .1-.186.5.5 0 0 0 .012-.211.494.494 0 0 0-.231-.343 4.82 4.82 0 0 0-.636-.443c-2.7-1.539-5.444-3-8.262-4.32a32.538 32.538 0 0 0-4-1.509.573.573 0 0 1 .222-.392 61.762 61.762 0 0 1 6.391-6.3 58.181 58.181 0 0 1 6.132-4.964.469.469 0 0 0 .208-.614.452.452 0 0 0-.563-.222 2.031 2.031 0 0 0-.887.474c-.954.762-1.909 1.509-2.841 2.293a75.41 75.41 0 0 0-9.342 8.906 1.022 1.022 0 0 1-1.154.422 15.8 15.8 0 0 0-7.227.147c-.363.1-.917.1-.8.674.133.628.658.362 1.036.266a15.3 15.3 0 0 1 6.576-.207c.288.052.584.074.739.407a.354.354 0 0 0 .389.176.364.364 0 0 0 .136-.065c.3-.222.57-.1.851-.015a36.187 36.187 0 0 1 6.85 2.951c1.886.991 3.809 1.916 5.6 3.085.237.16.501.234.701-.01z"></path><path d="M166.685 27.179a1.338 1.338 0 0 1-.281 2.2 3.676 3.676 0 0 1-3.07.858.851.851 0 0 0-.976.259c-.251.362-.059.688.118 1.006a23.061 23.061 0 0 1 1.554 3.358c.17.474.029.629-.437.592a7.1 7.1 0 0 1-2.981-1.006 12.109 12.109 0 0 1-2.744-2.2c-.244-.252-.481-.592-.9-.407s-.363.569-.341.932c.052 1.287-.421 1.657-1.664 1.295a6.82 6.82 0 0 1-2.87-1.894c-.156-.156-.3-.326-.451-.474a.586.586 0 0 0-.762-.118c-.259.148-.267.414-.185.688a21.371 21.371 0 0 1 .68 2.537c.111.747-.081 1.036-.836 1.132a5.2 5.2 0 0 1-2.13-.178 15.475 15.475 0 0 1-8.8-6.317c-.51-.739-.976-1.509-1.48-2.249s-.828-.806-1.582-.3a65.488 65.488 0 0 1-8.744 5.282 14.133 14.133 0 0 1-4.512 1.516 1.136 1.136 0 0 1-.525-.007 1.231 1.231 0 0 0-1.184.148 2.046 2.046 0 0 0-1.191 1.753c-.614 4.135-1.176 8.285-1.753 12.42-.126.909-.347 1.8-.51 2.7-.089.473-.259.473-.622.214a6.289 6.289 0 0 0-3.018-1.346 3.171 3.171 0 0 0-2.589.836 7.392 7.392 0 0 0-2.507 5.962 7.937 7.937 0 0 0 2.123 5.414 16.71 16.71 0 0 1-2.56-.1.972.972 0 0 1-.761-.592 43 43 0 0 1-3.662-9.069 82.269 82.269 0 0 1-2.449-10.659 21.67 21.67 0 0 1-.118-8.558c1.317-5.408 4.823-8.648 10.216-9.89.828-.193 1.686-.3 2.529-.437a1.891 1.891 0 0 0 1.531-1.176 31.32 31.32 0 0 1 1.99-3.743 12.325 12.325 0 0 1 6.968-4.963 41.191 41.191 0 0 1 10.208-1.813 42.6 42.6 0 0 1 16.954 2.286 17.556 17.556 0 0 1 3.965 1.931 7.766 7.766 0 0 1 2.175 2.2 3.345 3.345 0 0 1 .577 2.433 2.466 2.466 0 0 0 1.161 2.567 48.147 48.147 0 0 1 4.269 2.863 12.926 12.926 0 0 1 2.177 2.114z" style="fill:#ebdecc"></path><path class="c" d="M157.21 34.687c-.156 2.641-.311 5.215-.466 7.8-4.476-1.391-7.568.318-9.779 4.15-1.029-1.487-2.841-1.494-4.424-.94a7.353 7.353 0 0 0-2.766 1.938c-.237-.3-.156-.643-.222-.946a8.894 8.894 0 0 0-7.9-7.072 8.768 8.768 0 0 0-9.58 6.7.129.129 0 0 1-.014.051c-.126.407.022 1.1-.326 1.184a5.033 5.033 0 0 1-1.827-.17c-.251-.037-.163-.281-.14-.444q.621-4.439 1.25-8.876c.118-.807.222-1.62.369-2.427.148-.784.444-1 1.228-.976a11.213 11.213 0 0 0 4.875-1.28 59.066 59.066 0 0 0 9.054-5.326c.814-.555.666-.569 1.139.215a18.631 18.631 0 0 0 5.23 5.91 15.677 15.677 0 0 0 5.9 2.648 6.487 6.487 0 0 0 1.967.045 1.65 1.65 0 0 0 1.561-2.094c-.045-.355-.111-.7-.185-1.176 1.546 1.099 3.058 2.099 5.056 1.086zm-1.288 2.818a.694.694 0 0 0 .4-.532c-.007-.437-.451-.614-.91-.348-.533.318-1.035.666-1.553 1.006-1.62 1.08-3.27 2.131-4.83 3.3-.3.222-.518.518-.237.851.251.3.555.163.843-.059a74.672 74.672 0 0 1 6.287-4.218zM139.567 41.8a.512.512 0 0 0 .055-.2.524.524 0 0 0-.027-.208.534.534 0 0 0-.272-.308 2.261 2.261 0 0 0-.429-.214c-.451-.207-.917-.385-1.368-.607q-3.805-1.875-7.6-3.765c-.252-.126-.511-.215-.74-.311-.325-.015-.562.082-.629.385s.111.481.385.584a29.668 29.668 0 0 1 3.24 1.546c2.2 1.125 4.4 2.242 6.665 3.226.284.119.553.193.72-.128z"></path><path class="a" d="M156.322 36.973a.694.694 0 0 1-.4.532 74.672 74.672 0 0 0-6.287 4.217c-.288.222-.592.362-.843.059-.281-.333-.059-.629.237-.851 1.56-1.168 3.21-2.219 4.83-3.3.518-.34 1.02-.688 1.553-1.006.459-.265.903-.088.91.349zm-.851 10.607c.281.326.074.585-.2.8-.9.718-1.754 1.554-3.019 1.465a2.753 2.753 0 0 1-1.812-.57c-.3-.229-.451-.547-.177-.873.244-.3.51-.155.769.06a1.976 1.976 0 0 0 2.345.118c.459-.281.865-.636 1.3-.954.254-.194.543-.342.794-.046z"></path><path class="c" d="M156.381 57.211a41.15 41.15 0 0 1-1.317 3.692 94.183 94.183 0 0 1-5.518 11.665 6.527 6.527 0 0 1-3.166 2.788 23.427 23.427 0 0 1-10.274 1.827c-2.53-.074-5.045-.414-7.56-.65a3.715 3.715 0 0 1-2.286-1.066 57.938 57.938 0 0 1-5.429-6.45 40.064 40.064 0 0 1-2.145-3.092c-.193-.3-.422-.629-.807-.392a.414.414 0 0 0-.214.511l-1.716.51c-.259-.888-.526-1.768-.792-2.656-.133-.458-.059-.591.429-.547s1 .015 1.494.015c.318 0 .57-.111.585-.459s-.267-.458-.57-.481a17.435 17.435 0 0 0-1.072-.029 5.15 5.15 0 0 1-5.422-4.276 6.789 6.789 0 0 1 1.76-6.835 2.433 2.433 0 0 1 2.8-.584 10.076 10.076 0 0 1 3.618 2.589c.111.118.207.244.318.355.214.222.473.37.732.148.289-.244.185-.54-.015-.8-.014-.015-.029-.037-.044-.044-1.036-.673-.984-1.569-.592-2.6a7.056 7.056 0 0 0 .311-1.583c.044-.333.177-.443.51-.392.451.074.91.111 1.369.156.332.037.48.162.54.547a8.945 8.945 0 0 0 17.612.925 3.83 3.83 0 0 1 1.043-1.716 4.873 4.873 0 0 1 3.75-1.954 1.832 1.832 0 0 1 2.042 1.384c.237.636.133.814-.51.9-.363.052-.488.311-.533.629a4.884 4.884 0 0 0 .229 2.064 12.785 12.785 0 0 0 1.672 3.292 6.453 6.453 0 0 1 1.161 2.855 1.907 1.907 0 0 1-1.331 2.256 3.093 3.093 0 0 1-3.188-.252 1.294 1.294 0 0 0-1.82.03 2 2 0 0 1-2.2-.111.519.519 0 0 1-.177-.362c-.037-.259-.156-.459-.459-.444a.567.567 0 0 0-.547.532.841.841 0 0 0 .035.442.855.855 0 0 0 .253.365 3.069 3.069 0 0 0 3.551.436.756.756 0 0 1 .954.007 4.177 4.177 0 0 0 4.431.03 2.67 2.67 0 0 0 1.465-2.781c-.015-.259-.037-.518-.06-.881a7.021 7.021 0 0 0 7.094.481zm-4.771 9.764a.492.492 0 0 0 .006-.195.5.5 0 0 0-.07-.183.5.5 0 0 0-.313-.221 1.593 1.593 0 0 0-.592-.022 9.861 9.861 0 0 0-5.259 2.094c-.422.347-.555.34-.651-.237a7.1 7.1 0 0 0-1.206-2.907c-.207-.281-.5-.466-.821-.244-.377.251-.17.54.03.813a6.2 6.2 0 0 1 .939 2.057 11.369 11.369 0 0 1 .03 5.91c-.082.325-.171.732.281.843.436.1.569-.266.658-.614a9.959 9.959 0 0 0 .358-2.884 1.894 1.894 0 0 1 .747-1.761 8.038 8.038 0 0 1 5.341-2.079c.278-.007.478-.081.522-.37zm-3 3.314a.416.416 0 0 0 .185-.517.436.436 0 0 0-.459-.311 3.224 3.224 0 0 0-2.012 1.923.532.532 0 0 0 .34.577c.193.074.444.059.518-.148a3.025 3.025 0 0 1 1.425-1.524zm-30.047-11c.34-.3.17-.629-.1-.88a23.314 23.314 0 0 0-1.45-1.243 10.105 10.105 0 0 0-3.351-1.783c-.348-.1-.718-.14-.843.289s.2.555.562.651a7.224 7.224 0 0 1 2.219 1.058c-.4.2-.718.325-1.006.5-.348.215-.954.37-.644.932.3.533.733.111 1.08-.074 1.435-.754 1.6-.74 2.767.377.23.218.474.433.763.174z"></path><path class="a" d="M153.03 83.789c.281.252.156.555-.044.8a14.6 14.6 0 0 1-1.42 1.361 36.45 36.45 0 0 1-6.806 4.823 3.258 3.258 0 0 1-.436.192c-.274-.029-.459-.1-.51-.333a.482.482 0 0 1 .244-.554c.488-.311.976-.629 1.479-.91a32 32 0 0 0 6.724-5.222c.239-.238.488-.408.769-.157zm-1.797-17.413a.5.5 0 0 1 .313.221.5.5 0 0 1 .07.183.492.492 0 0 1-.006.195c-.044.289-.244.363-.518.37a8.038 8.038 0 0 0-5.341 2.079 1.894 1.894 0 0 0-.751 1.761 9.959 9.959 0 0 1-.362 2.884c-.089.348-.222.71-.658.614-.452-.111-.363-.518-.281-.843a11.369 11.369 0 0 0-.03-5.91 6.2 6.2 0 0 0-.939-2.057c-.2-.273-.407-.562-.03-.813.325-.222.614-.037.821.244a7.1 7.1 0 0 1 1.206 2.907c.1.577.229.584.651.237a9.861 9.861 0 0 1 5.259-2.094 1.593 1.593 0 0 1 .596.022z"></path><path class="a" d="M148.792 69.772a.416.416 0 0 1-.185.517 3.025 3.025 0 0 0-1.428 1.524c-.074.207-.325.222-.518.148a.532.532 0 0 1-.34-.577 3.224 3.224 0 0 1 2.012-1.923.43.43 0 0 1 .285.073.439.439 0 0 1 .174.238z"></path><path class="c" d="M143.3 83.944c.066.777.222.947.969.962A14.217 14.217 0 0 1 141 87.051a18.654 18.654 0 0 1-13.765 1.4 37.269 37.269 0 0 1-9.691-4.172c-.081-.051-.155-.118-.3-.229.577-.326 1.1-.629 1.627-.932.178-.1.252-.022.274.163a5 5 0 0 0 .126.643.461.461 0 0 0 .066.168.483.483 0 0 0 .127.128.46.46 0 0 0 .167.068.455.455 0 0 0 .18 0 .4.4 0 0 0 .161-.047.421.421 0 0 0 .129-.108.393.393 0 0 0 .073-.151.414.414 0 0 0 .007-.168 18.3 18.3 0 0 0-.267-2.271c-.162-.436-.118-.946-.236-1.405-.674-2.6-1.339-5.208-2.057-7.8a355.94 355.94 0 0 0-1.671-5.784l1.716-.511a1.5 1.5 0 0 0 .222.422 73.7 73.7 0 0 0 6.99 9.025 5.928 5.928 0 0 0 4.322 2.11c2.153.089 4.283.466 6.436.517a25.807 25.807 0 0 0 7.071-.562c.481-.118.636-.037.6.474a41.584 41.584 0 0 0-.007 5.915zm-.818 66.611c.044.03.089.074.17.141-.592.273-1.154.518-1.7.791a10.008 10.008 0 0 0-2.167 1.354 3.78 3.78 0 0 1-1.717.666 13.144 13.144 0 0 1-3.092.244c-4.623-.082-9.246.133-13.862.362-1.509.074-3 .407-4.5.629a8.478 8.478 0 0 1-1.369.1c-.784-.015-.946-.347-.525-1.028a5.264 5.264 0 0 1 1.457-1.487 10.8 10.8 0 0 1 5.237-1.679 26.348 26.348 0 0 1 7.028.229 2.508 2.508 0 0 0 .473.059c.252 0 .5-.059.548-.354a.463.463 0 0 0 .006-.2.445.445 0 0 0-.078-.178.433.433 0 0 0-.147-.129.441.441 0 0 0-.188-.052c-.666-.111-1.339-.23-2.012-.3a27.074 27.074 0 0 0-9.247.622 26.906 26.906 0 0 1-4.934.873c-.451.029-1.065.125-1.25-.326-.17-.436.378-.74.7-1.013a12.459 12.459 0 0 1 6.494-2.819 31.449 31.449 0 0 1 10.223.407c.592.111 1.184.215 1.775.3.3.037.636.037.688-.37s-.229-.517-.547-.577a40.157 40.157 0 0 0-11.288-.85 15.789 15.789 0 0 0-4.956 1.272c-.163.074-.325.14-.6.251a1.821 1.821 0 0 1 .784-1.131 10.72 10.72 0 0 1 4.934-2.168 22.741 22.741 0 0 1 14.106 1.805c.755.355 1.553.563 2.33.851a68.7 68.7 0 0 1 7.226 3.705z"></path><path class="a" d="M142.438 91.541c.111.429-.222.592-.577.681a65.376 65.376 0 0 1-7.324 1.723 27.712 27.712 0 0 1-3.062.185 23.283 23.283 0 0 1-8.655-1.738c-2.441-1.013-4.963-1.849-7.367-2.966a8.035 8.035 0 0 1-1.746-1.036 1.155 1.155 0 0 1-.443-.547.473.473 0 0 1-.021-.323.48.48 0 0 1 .191-.262.427.427 0 0 1 .554.06 12.99 12.99 0 0 0 4.254 2.241c1.827.74 3.669 1.435 5.511 2.145a22.414 22.414 0 0 0 14.6.459c1.095-.311 2.19-.6 3.292-.881.312-.082.689-.162.793.259zm-3.115-50.463a.534.534 0 0 1 .272.308.524.524 0 0 1 .027.208.512.512 0 0 1-.055.2c-.17.325-.436.251-.724.126-2.264-.984-4.468-2.1-6.665-3.226a29.668 29.668 0 0 0-3.24-1.546c-.274-.1-.444-.281-.385-.584s.3-.4.629-.385c.229.1.488.185.74.311q3.806 1.887 7.6 3.765c.451.222.917.4 1.368.607a2.261 2.261 0 0 1 .433.216zM136 47.373a.432.432 0 0 1 .031.356.435.435 0 0 1-.246.258 11.27 11.27 0 0 1-4.379 1.495 5.678 5.678 0 0 1-3.218-.962c-.37-.259-.932-.274-1.08-.844-.074-.281-.185-.569.082-.769a.584.584 0 0 1 .8.156 4.484 4.484 0 0 0 5.377.954c.659-.281 1.31-.577 1.975-.858a.457.457 0 0 1 .379-.043.455.455 0 0 1 .167.1.467.467 0 0 1 .112.157zM118.464 58.41c.266.251.436.577.1.88-.289.259-.533.044-.762-.178-1.162-1.117-1.332-1.132-2.767-.377-.347.185-.784.607-1.08.074-.31-.562.3-.718.644-.932.288-.17.606-.3 1.006-.5a7.224 7.224 0 0 0-2.219-1.058c-.363-.1-.688-.215-.562-.651s.5-.392.843-.289a10.105 10.105 0 0 1 3.351 1.783c.499.397.982.818 1.446 1.248z"></path><path class="e" d="M112.886 79.314c.222.192.2.325.015.533a9.491 9.491 0 0 0-1.775 2.892 8.215 8.215 0 0 1-4.49 4.482 1.5 1.5 0 0 1-1.872-.118 21.176 21.176 0 0 0-2.115-1.465 1.969 1.969 0 0 0-.636-.31 29.577 29.577 0 0 0-6.14-.925 6.409 6.409 0 0 0-6.3 3.913 6.1 6.1 0 0 1-1.39 1.827 12.571 12.571 0 0 0-3.935 5.888.652.652 0 0 1-.17.3 4.8 4.8 0 0 0-1.458 3.609c-.007.3-.014.467-.392.459-.274-.007-.421.266-.569.481a3.68 3.68 0 0 0 .8 5.082c.369.3.4.48.133.887a12.038 12.038 0 0 0-1.776 5.829c-.325 4.091.955 7.834 2.582 11.48 1.206 2.715 2.522 5.378 3.765 8.078a74.881 74.881 0 0 1 3.358 10.216c.333 1.124.718 2.233 1.095 3.35a2.5 2.5 0 0 0 .518.94.514.514 0 0 0 .17.141.524.524 0 0 0 .215.059l.466.577a.591.591 0 0 0-.193.355 2.206 2.206 0 0 0 .208 1.343c.385.813.762 1.627 1.177 2.418 1.464 2.819 2.914 5.637 4.29 8.492a1.183 1.183 0 0 1 .229.688 18.217 18.217 0 0 1-4.645-.777c-3.2-.843-6.4-1.686-9.624-2.418-.629-.148-.851.022-.858.665a29.956 29.956 0 0 0 .274 3.64 2.078 2.078 0 0 0 1.45 1.679 24.444 24.444 0 0 0 3.9 1.139 45.191 45.191 0 0 0 10.548 1.22c.91.015 1.147.208 1.376 1.088.555 2.108.755 4.275 1.25 6.4a20.563 20.563 0 0 0 2.929 6.894c.311.467.208.652-.222.9a33.393 33.393 0 0 1-5.34 2.086 69.329 69.329 0 0 1-14.972 3.3 16.818 16.818 0 0 1-5.71.059c-1.635-.363-2.131-.984-2.175-2.648-.037-1.354.125-2.708.066-4.061a6.114 6.114 0 0 0-1.664-3.817 31.927 31.927 0 0 0-3.122-2.966c-.384-.341-.761-.7-1.154-1.036a9.228 9.228 0 0 1-2.988-6.569 45.092 45.092 0 0 1 .34-8 101.117 101.117 0 0 0 .422-14.276c-.133-2.93-.185-5.866-.3-8.8-.156-4.164-.407-8.321-.7-12.478-.141-2.027-.259-4.061-.488-6.081a147.975 147.975 0 0 1-.429-18.574c.029-2.115.222-4.224.325-6.332.015-.274.045-.451.385-.459a1.858 1.858 0 0 0 .865-.384 54.857 54.857 0 0 0 16.15-15.851 15.943 15.943 0 0 0 2.752-6.317 8.109 8.109 0 0 0-.089-2.885 2.6 2.6 0 0 1 1.006.466c.858.54 1.723 1.08 2.544 1.679a10.6 10.6 0 0 0 5.437 2.108 20.774 20.774 0 0 1 9.7 3.795c2.609 1.709 4.651 4.054 6.951 6.11z"></path><path class="a" d="M111.976 114.065a.494.494 0 0 1 .231.343.5.5 0 0 1-.012.211.509.509 0 0 1-.1.186c-.2.244-.459.17-.7.015-1.79-1.169-3.713-2.094-5.6-3.085a36.187 36.187 0 0 0-6.85-2.951c-.281-.082-.547-.207-.851.015a.364.364 0 0 1-.136.065.354.354 0 0 1-.152 0 .357.357 0 0 1-.237-.177c-.155-.333-.451-.355-.739-.407a15.3 15.3 0 0 0-6.576.207c-.378.1-.9.362-1.036-.266-.118-.57.436-.577.8-.674a15.8 15.8 0 0 1 7.227-.147 1.022 1.022 0 0 0 1.154-.422 75.41 75.41 0 0 1 9.342-8.906c.932-.784 1.887-1.531 2.841-2.293a2.031 2.031 0 0 1 .887-.474.452.452 0 0 1 .563.222.469.469 0 0 1-.208.614 58.181 58.181 0 0 0-6.132 4.964 61.762 61.762 0 0 0-6.391 6.3.573.573 0 0 0-.222.392 32.538 32.538 0 0 1 4 1.509c2.818 1.324 5.562 2.781 8.262 4.32a4.82 4.82 0 0 1 .635.439z"></path><path class="f" d="M109.861 185.2c.281.193.362.3.052.548-.807.621-1.62 1.22-2.486 1.76-.3.193-.414.141-.532-.2-.555-1.575-.94-3.21-1.569-4.756-.088-.222.518-.836.8-.828.163.029.215.162.3.273a15.2 15.2 0 0 0 3.435 3.203zm-4.024 1.993c.347 1.058.347 1.058-.651 1.554a39.633 39.633 0 0 1-4.113 1.76c-.244.089-.421.163-.547-.192-.614-1.746-1.095-3.536-1.606-5.311l-.029-.178c-.045-.192.14-.244.311-.3 1.612-.57 3.232-1.117 4.845-1.7.4-.147.4.156.466.348.451 1.334.88 2.673 1.324 4.019z"></path><path class="g" d="M101.45 86.215c1.125.281 1.924 1.228 2.922 1.835-2.744.887-5.341 2.219-8.3 2.1-.5-.023-.924.236-1.442.192-.362-.037-.421.547-.059.954.666.74 1.354 1.465 2.042 2.19a8.934 8.934 0 0 1 1.376 1.723 2.107 2.107 0 0 1-.178 2.456 2 2 0 0 1-2.308.725 10.756 10.756 0 0 1-5.289-3.048 3.626 3.626 0 0 1-.858-3.5 14.609 14.609 0 0 1 1.376-3.669 5.351 5.351 0 0 1 4.7-2.789 19.9 19.9 0 0 1 6.018.831z"></path><path class="f" d="M100.363 164.588c.141.332.089.473-.311.429a5.29 5.29 0 0 0-.776-.008 44.2 44.2 0 0 1-12.546-1.916c-.118-.029-.229-.074-.34-.1a1.884 1.884 0 0 1-1.709-2.02 11.417 11.417 0 0 0-.141-1.671c-.066-.511.074-.659.607-.526 2.722.711 5.452 1.376 8.166 2.079a22.629 22.629 0 0 0 5.526.939.507.507 0 0 1 .548.356q.477 1.217.976 2.438zm-.725 26.119c.074.2.022.3-.163.362a38.488 38.488 0 0 1-7.116 1.79c-.2.045-.273-.088-.347-.244a33.4 33.4 0 0 1-1.813-5.5c-.118-.436.237-.392.459-.436 1.849-.37 3.713-.725 5.54-1.221.459-.126.925-.251 1.376-.407.252-.088.355-.029.422.222.504 1.827 1.004 3.651 1.642 5.434z"></path><path class="g" d="M93.691 99.123a7.327 7.327 0 0 1 .029 2.086 1 1 0 0 1-.769.821 3.073 3.073 0 0 1-1.368.082 10.568 10.568 0 0 1-5.016-2.1 3.468 3.468 0 0 1-1.235-4.253 12.816 12.816 0 0 1 3.136-4.587 11.087 11.087 0 0 0-.185 2.2 5.171 5.171 0 0 0 1.968 3.373 12.48 12.48 0 0 0 2.966 1.893c.222.108.444.189.474.485z"></path><path class="f" d="M90.976 192.645c.148.318.1.444-.281.488a22.532 22.532 0 0 1-3.987.214h-1.849a.6.6 0 0 1-.42-.1.6.6 0 0 1-.239-.362 54.41 54.41 0 0 1-1.316-4.645c-.089-.37.014-.466.392-.495 1.782-.171 3.565-.348 5.325-.688.393-.082.6-.015.711.429a28.808 28.808 0 0 0 1.664 5.159z"></path><path class="g" d="M90.917 103.022c-1.561 1.923-3.876 1.383-5.681.044a3.874 3.874 0 0 1-1.147-5.037c1.147 3.195 3.911 4.194 6.828 4.993z"></path><path class="f" d="M82.876 62.168c3.085.813 4.054 3.728 3.395 6.354a14.284 14.284 0 0 1-.813 2.241c-.17.414-.355.451-.7.192a28.061 28.061 0 0 1-6.176-5.873 22.1 22.1 0 0 0-3.78-4.068 12.127 12.127 0 0 0-3.2-1.961.948.948 0 0 1-.665-.932c-.052-.954-.2-1.9-.3-2.855-.03-.281-.067-.57-.348-.71-.3-.148-.51.037-.717.3-.126-.281-.222-.5-.311-.717-.392-.947-.392-.955.607-1.3a4.469 4.469 0 0 1 4.5.7 15.685 15.685 0 0 1 3.27 3.551c.673.991 1.294 2.011 2.034 2.951a5.828 5.828 0 0 0 2.678 1.938c.186.07.35.144.526.189z"></path><path class="g" d="M86.989 105.033c-1.679 1.339-2.441 1.472-4.12 0a2.677 2.677 0 0 1-.1-3.957 5.9 5.9 0 0 0 4.216 3.957z"></path><path class="f" d="M84.429 71.887c.267.192.326.3.163.592a39.4 39.4 0 0 1-3.632 5.185c-.259.341-.392.06-.554-.081a33.358 33.358 0 0 1-4.72-5.074 20.8 20.8 0 0 0-4.838-4.594.8.8 0 0 1-.429-.88 48.123 48.123 0 0 0 .592-6.843c0-.081.022-.155.037-.288a12.914 12.914 0 0 1 4.752 3.358 16.213 16.213 0 0 1 1.923 2.286 28.05 28.05 0 0 0 6.706 6.339zM83.12 192.66c.163.48.1.643-.355.5a11.154 11.154 0 0 1-2.175-.377 2.322 2.322 0 0 1-1.819-1.99c-.148-.961-.3-1.923-.481-2.885-.067-.347.007-.4.355-.318a10.515 10.515 0 0 0 2.722.259c.348-.015.481.089.555.436a33.329 33.329 0 0 0 1.198 4.375zM79.821 78.359c.281.23.252.415.015.681a68.12 68.12 0 0 1-4.49 4.631c-.318.3-.459.192-.688-.074a328.67 328.67 0 0 0-3.98-4.623c-.495-.563-1.043-1.088-1.583-1.62a.721.721 0 0 1-.232-.3.713.713 0 0 1-.049-.371c.459-2.641.9-5.289 1.369-8.041a16.942 16.942 0 0 1 3.6 3.107 51.014 51.014 0 0 0 6.038 6.61z"></path><path class="h" d="M77.373 188.288c.325 1.657.333 1.672-1.184 2.434a19.264 19.264 0 0 1-6.287 1.842 49.177 49.177 0 0 1-8.27.68 355.998 355.998 0 0 1-4.838-.244c-1.139-.074-1.25-.2-1.095-1.287.133-.9.3-1.805.459-2.708.066-.332.059-.71.518-.821a.282.282 0 0 0 .177-.347c-.2-.525.207-.688.5-.925.88-.688 1.8-1.331 2.634-2.071A5.346 5.346 0 0 0 61.469 178a11.811 11.811 0 0 1-1.014-4.69c-.118-3.706-.4-7.405-.783-11.1-.363-3.469-.74-6.931-1.214-10.385q-1.131-8.266-2.707-16.459a397.094 397.094 0 0 1-.769-4.12c-.045-.229-.1-.459.2-.6a.453.453 0 0 0 .181-.2.463.463 0 0 0 .034-.27c-.126-2.951.1-5.895.155-8.847.074-3.765.289-7.53.518-11.295.185-3.062.133-6.147.473-9.2.252-2.3-.414-4.445-.562-6.672-.059-.85-.214-1.7-.318-2.552-.022-.17-.1-.347.244-.3a15 15 0 0 0 10.053-2.5c.1-.059.192-.119.4-.237-.1 1.946-.162 3.78-.3 5.607-.23 3.225-.267 6.458-.252 9.683.007 3.691.037 7.389.311 11.066.118 1.62.384 3.24.5 4.867.133 1.894.3 3.78.422 5.666q.255 4.239.451 8.485c.126 2.944.193 5.895.311 8.847.133 3.432.148 6.864-.052 10.289-.126 2.049-.362 4.091-.532 6.132a32.207 32.207 0 0 0 .044 8.048 9.1 9.1 0 0 0 2.7 5.223c.858.828 1.768 1.6 2.655 2.411.281.252.555.518.844.762a6.667 6.667 0 0 1 2.492 6.487 9.811 9.811 0 0 0-.037 2.027 3.348 3.348 0 0 0 1.073 2.685.725.725 0 0 1 .215.481c.057.32.109.631.168.949z"></path><path class="f" d="M73.911 84.181c.266.311.333.5-.037.807q-1.487 1.209-3 2.367a.857.857 0 0 1-1.132.029c-.666-.444-1.28-.954-1.909-1.442a.458.458 0 0 1-.207-.452c.222-2.359.6-4.7.955-7.042a.48.48 0 0 1 .074-.125 2.928 2.928 0 0 1 .784.717c1.491 1.716 2.97 3.44 4.472 5.141z"></path><path class="g" d="M70.027 58.476a44.964 44.964 0 0 1-.525 8.285c-.318 2.027-.628 4.061-1.028 6.066-.5 2.448-.74 4.926-1.139 7.382a.822.822 0 0 1-.444.629 27.087 27.087 0 0 1-3.691 2.2 17.07 17.07 0 0 1-7.434 1.509c-.866-.037-.873-.045-.94-.888-.118-1.65-.221-3.3-.332-4.949a.953.953 0 0 1 .14-.688.47.47 0 0 0 .094-.249.483.483 0 0 0-.057-.261 4.756 4.756 0 0 1-.111-2.278c1.139 1.62 2.042 3.35 3.048 5.022a7.816 7.816 0 0 0 .562.843.444.444 0 0 0 .134.142.435.435 0 0 0 .18.072.449.449 0 0 0 .366-.1.431.431 0 0 0 .122-.133.447.447 0 0 0 .059-.171.44.44 0 0 0-.1-.339c-1.583-2.515-2.841-5.222-4.675-7.575A9.991 9.991 0 0 0 52.7 71.34c-.311-.244-.333-.363.044-.555a36.252 36.252 0 0 0 4.631-2.855 23.268 23.268 0 0 0 8.832-13.2c.192-.71.407-1.42.614-2.123a2.576 2.576 0 0 0 .111-.407 1.485 1.485 0 0 0 .015-.673l.229-.082c.1.274.193.555.289.829a60.733 60.733 0 0 0 2.5 5.8 1.107 1.107 0 0 1 .062.402z"></path><path class="i" d="M69.732 31.832a14.488 14.488 0 0 1-.37 6.095c-.222.865-.5 1.716-.762 2.574-.252-.71-.385-1.405-.607-2.086a7.234 7.234 0 0 0-1.08-2.115 3.584 3.584 0 0 0-5.851-.134 6.838 6.838 0 0 0-.925 1.591c-.281-.141-.347-.385-.465-.577a33.07 33.07 0 0 0-8.389-9.172 7.876 7.876 0 0 0-5.829-1.708c.008-.067 0-.141.022-.17a20.8 20.8 0 0 0 4.232-9.9c.133-.7.251-1.405.355-2.115a.95.95 0 0 1 .7-.843 8.963 8.963 0 0 1 8.026.917 20.2 20.2 0 0 1 6.5 6.82 29.088 29.088 0 0 1 4.443 10.823zm-.888 5.074a.418.418 0 0 0 .118-.54 10.262 10.262 0 0 0-.629-1.065.416.416 0 0 0-.525-.155c-.214.089-.3.259-.273.6a2.462 2.462 0 0 0 .761 1.176.417.417 0 0 0 .277.095.408.408 0 0 0 .271-.111zm-.744-7.375c.31.193.547-.066.6-.377a2.65 2.65 0 0 0-1.309-1.494c-.355-.022-.585.192-.466.5a2.825 2.825 0 0 0 1.175 1.371zm-1.613 2.974c.355.1.57-.059.629-.429-.067-.466-.6-.555-.777-.94a.419.419 0 0 0-.447-.236.434.434 0 0 0-.167.066.458.458 0 0 0-.228.27.456.456 0 0 0-.018.18.474.474 0 0 0 .054.172 1.476 1.476 0 0 0 .954.917zm-1.657-6.569a.43.43 0 0 0 .48.039.436.436 0 0 0 .174-.182.429.429 0 0 0 .041-.249 2.369 2.369 0 0 0-1.146-1.265.442.442 0 0 0-.246.029.455.455 0 0 0-.192.155.447.447 0 0 0-.021.475 2.961 2.961 0 0 0 .907.998zm-2.019 8.041a.444.444 0 0 0 .45-.043.446.446 0 0 0 .179-.416 2.007 2.007 0 0 0-1.154-1.013.443.443 0 0 0-.228.053.443.443 0 0 0-.228.388.447.447 0 0 0 .064.225 1.94 1.94 0 0 0 .914.806zm.074-14.853a1.139 1.139 0 0 0-.843-.888.431.431 0 0 0-.178.022.407.407 0 0 0-.153.092.434.434 0 0 0-.136.322c-.029.319.526.873.859.881a.41.41 0 0 0 .177-.015.4.4 0 0 0 .25-.238.407.407 0 0 0 .021-.176zm-.222 10.91a.48.48 0 0 0 .111-.159.469.469 0 0 0 0-.379.469.469 0 0 0-.115-.157c-.221-.274-.458-.54-.687-.806a.581.581 0 0 0-.2-.173.575.575 0 0 0-.257-.064.441.441 0 0 0-.4.236.444.444 0 0 0 .026.459 3.479 3.479 0 0 0 .88 1.043.443.443 0 0 0 .5.1.444.444 0 0 0 .139-.1zm-1.768-5.555a.422.422 0 0 0 .234-.042.43.43 0 0 0 .173-.616 2.791 2.791 0 0 0-.984-1.006.441.441 0 0 0-.228-.056.458.458 0 0 0-.224.068.444.444 0 0 0-.206.4 2.322 2.322 0 0 0 1.232 1.252zm-1.142 9.631a.519.519 0 0 0-.1-.606c-.452-.585-.9-1.169-1.354-1.746-.192-.244-.444-.385-.725-.192-.325.222-.229.525-.037.784.429.577.873 1.139 1.317 1.7a.684.684 0 0 0 .22.2.708.708 0 0 0 .283.091.432.432 0 0 0 .23-.057.422.422 0 0 0 .166-.174zm-1.139-14.321a.445.445 0 0 0 .111-.5 2.893 2.893 0 0 0-1.435-1 .449.449 0 0 0-.437.259.432.432 0 0 0 .126.54c.348.266.71.518 1.08.747a.437.437 0 0 0 .555-.052zm-.585 8.551c.444-.007.651-.384.407-.724a9.629 9.629 0 0 0-.888-1.036.432.432 0 0 0-.133-.122.447.447 0 0 0-.171-.059.458.458 0 0 0-.18.015.445.445 0 0 0-.159.085.459.459 0 0 0-.122.134.457.457 0 0 0-.048.354.449.449 0 0 0 .081.162 4.789 4.789 0 0 0 .94 1.073 1.156 1.156 0 0 0 .273.118zm-1.657-13.677a.428.428 0 0 0-.074-.592 2.868 2.868 0 0 0-1.242-.628c-.34-.023-.548.081-.636.333a.415.415 0 0 0-.03.178.426.426 0 0 0 .047.174.431.431 0 0 0 .116.139.425.425 0 0 0 .163.078c.367.142.728.3 1.079.481a.435.435 0 0 0 .577-.163zm-.022 8.078a.384.384 0 0 0-.14-.481 6.054 6.054 0 0 0-1.421-.71.407.407 0 0 0-.5.222.412.412 0 0 0-.049.264.416.416 0 0 0 .123.239 3.3 3.3 0 0 0 1.45.754c.287 0 .463-.074.537-.288zm-2.286 3.417a.4.4 0 0 0 .057-.288.408.408 0 0 0-.153-.252 57.24 57.24 0 0 0-1.967-1.339.4.4 0 0 0-.54.089.41.41 0 0 0-.13.265.406.406 0 0 0 .085.283 6.216 6.216 0 0 0 2.057 1.457c.288.015.488-.008.591-.215zm-.473-9.039a1.531 1.531 0 0 0-.081-.207 2.032 2.032 0 0 0-1.6-.577.428.428 0 0 0-.193.134.435.435 0 0 0-.1.214.376.376 0 0 0 .016.262.38.38 0 0 0 .184.189 7.829 7.829 0 0 0 1.279.459c.304.074.458-.163.495-.474zm-1.768 3.824a.432.432 0 0 0-.237-.547 8.262 8.262 0 0 1-1.072-.636.432.432 0 0 0-.155-.09.425.425 0 0 0-.348.037.522.522 0 0 0-.245.422.438.438 0 0 0 .126.3 2.488 2.488 0 0 0 1.369.813c.274-.003.488-.042.562-.299z"></path><path class="a" d="M68.962 36.366a.441.441 0 0 1 .041.292.448.448 0 0 1-.151.253.444.444 0 0 1-.276.1.451.451 0 0 1-.28-.093 2.462 2.462 0 0 1-.761-1.176c-.023-.34.059-.511.273-.6a.416.416 0 0 1 .525.155 10.262 10.262 0 0 1 .629 1.069z"></path><path class="f" d="M68.134 87.436c.4.288.806.57 1.3.924-.577.385-1.088.74-1.628 1.073-.236.155-.51.126-.5-.222a2.5 2.5 0 0 1 .421-1.738c.192-.215.259-.148.407-.037z"></path><path class="a" d="M68.7 29.154c-.052.311-.289.57-.6.377a2.825 2.825 0 0 1-1.176-1.368c-.119-.311.111-.525.466-.5a2.65 2.65 0 0 1 1.31 1.491z"></path><path class="g" d="M66.07 36.81a7.717 7.717 0 0 1 1.406 5.49 12.825 12.825 0 0 1-1.14 3.824c-.044.111-.081.266-.17.3-.769.326-.518.873-.325 1.406.436 1.2.9 2.4 1.331 3.609l-.229.082a.425.425 0 0 0-.123-.156.418.418 0 0 0-.181-.081c-.51-.133-.547.326-.643.666a35.991 35.991 0 0 1-3.011 8.233 22.321 22.321 0 0 1-6.139 6.931 34.394 34.394 0 0 1-6.184 3.624 10.578 10.578 0 0 1-8.736.289 29.73 29.73 0 0 1-8.2-4.616 15.92 15.92 0 0 1-5.245-7.419 7.9 7.9 0 0 0-3.291-4.483 9.118 9.118 0 0 1-3.085-4.32c-.851-2-1.487-4.083-2.2-6.132a2.143 2.143 0 0 1 .066-1.294 18.367 18.367 0 0 1 3.129-6.012.257.257 0 0 1 .078-.1.269.269 0 0 1 .246-.051.284.284 0 0 1 .113.065 6.283 6.283 0 0 0 5.636.326.387.387 0 0 0 .163-.082c.8-.88 1.945-1.021 2.981-1.405A8.33 8.33 0 0 0 34.9 33.9a5.689 5.689 0 0 1 1.761-1.058A18.619 18.619 0 0 0 43.1 28.7c.473-.466.924-.939 1.383-1.412.14-.156.259-.311.458-.052a.454.454 0 0 0 .225.139.441.441 0 0 0 .264-.014 5.675 5.675 0 0 1 4.445.888 17.984 17.984 0 0 1 2.625 1.963 34.091 34.091 0 0 1 7.075 8.688.992.992 0 0 1 .1.74 12.713 12.713 0 0 0-.178 3.092 1.5 1.5 0 0 0 .3.954.594.594 0 0 0 .431.255.593.593 0 0 0 .254-.031.6.6 0 0 0 .218-.135.427.427 0 0 0-.03-.747.657.657 0 0 1-.229-.592 11.145 11.145 0 0 1 .71-4.512 3.146 3.146 0 0 1 2.892-2.224 2.489 2.489 0 0 1 2.027 1.11zm-.962 4.778c.311-.1.533-.229.451-.569-.088-.385-.406-.459-.754-.385a3.971 3.971 0 0 0-.562.215 13.566 13.566 0 0 1 .939-2.16c.126-.252.163-.518-.118-.681a.5.5 0 0 0-.182-.067.49.49 0 0 0-.5.238 2.642 2.642 0 0 0-.222.355 17.411 17.411 0 0 0-1.26 3.217 7.986 7.986 0 0 0-.4 2.7c.03.4.222.732.666.666.414-.067.377-.4.318-.755a2.3 2.3 0 0 1 1.627-2.774zM50.765 67.952c.2-.229.341-.481.1-.74-.259-.288-.548-.178-.784.052a2.641 2.641 0 0 1-1.561.769c-.3.03-.547.185-.51.54s.31.422.614.415a3.444 3.444 0 0 0 2.141-1.036zm-.592-22.517a1.743 1.743 0 0 0 .111-.584 5.381 5.381 0 0 0-1.6-3.507.833.833 0 0 0-.741-.266.817.817 0 0 0-.375.154.825.825 0 0 0-.259.312 2.764 2.764 0 0 0-.348 1.354 5.63 5.63 0 0 0 1.05 2.966 1.243 1.243 0 0 0 1.243.562 1.216 1.216 0 0 0 .924-.991zm-.673-8.751c.332-.044.7 0 .672-.466-.022-.436-.377-.51-.776-.525l-.429.082c-2.382.517-4.705 1.213-7.035 1.9-1.361.4-2.722.777-4.076 1.184-.347.1-.651.3-.495.732.125.37.436.326.747.237 2.678-.784 5.348-1.575 8.026-2.345a25.219 25.219 0 0 1 3.366-.799zM48.324 66.4a2.236 2.236 0 0 0-.924-2.3 3.866 3.866 0 0 0-4.527.1 2.093 2.093 0 0 0 .473 3.21 6.361 6.361 0 0 0 2.441.5c.163 0 .326.015.481 0a2.418 2.418 0 0 0 2.056-1.51zM40 61.369c.193-.208.311-.444.126-.7s-.421-.2-.688-.089a3.751 3.751 0 0 1-3.535-.274 1.049 1.049 0 0 1-.5-1.235c.148-.584.3-1.161.466-1.731a9.141 9.141 0 0 0 .562-2.981 4.755 4.755 0 0 0-.274-1.82c-.125-.31-.34-.525-.687-.4-.37.126-.363.444-.245.747a4.246 4.246 0 0 1 .119 2.641c-.23.984-.562 1.945-.814 2.929a2.342 2.342 0 0 0 1.716 3.114 6.864 6.864 0 0 0 2.9.192 1.266 1.266 0 0 0 .854-.393zm-6.82-7.812a4.291 4.291 0 0 0-1.782-3.1 1.181 1.181 0 0 0-1.509.325.952.952 0 0 0-.3 1.026.945.945 0 0 0 .182.328c.577.636.9 1.442 1.443 2.093a1 1 0 0 0 1.272.437 1.016 1.016 0 0 0 .7-1.11zm-3.868-8.8a.427.427 0 0 0 .152-.065.417.417 0 0 0 .173-.273.423.423 0 0 0-.007-.166c-.059-.332-.311-.429-.673-.414a.486.486 0 0 0-.185.03 8.954 8.954 0 0 0-.651.288 15.49 15.49 0 0 0-5.215 4.468c-.229.289-.422.607-.052.873.355.252.629.022.851-.281a13.147 13.147 0 0 1 1.864-2.093 10.392 10.392 0 0 1 3.745-2.369z"></path><path class="h" d="M66.573 82.2a.689.689 0 0 1 .473-.207c-.14 1.264-.273 2.485-.414 3.706a1.432 1.432 0 0 0-.037.236c.185 1.154-.54 1.68-1.391 2.227a16.217 16.217 0 0 1-7.619 2.352c-.14.01-.281.012-.421.008-1.554-.03-1.716-.185-1.85-1.731-.074-.955-.184-1.9-.3-2.848-.037-.318-.029-.466.37-.452A17.7 17.7 0 0 0 66.573 82.2z"></path><path class="a" d="M67.113 32.076c-.059.37-.274.525-.629.429a1.476 1.476 0 0 1-.954-.917.45.45 0 0 1-.036-.352.458.458 0 0 1 .228-.27.434.434 0 0 1 .167-.066.406.406 0 0 1 .18.01.416.416 0 0 1 .158.084.41.41 0 0 1 .109.142c.178.385.71.474.777.94zm-1.554 8.943c.082.34-.14.466-.451.57a2.3 2.3 0 0 0-1.627 2.774c.059.355.1.687-.318.754-.444.066-.636-.266-.666-.666a7.986 7.986 0 0 1 .4-2.7 17.411 17.411 0 0 1 1.265-3.217 2.642 2.642 0 0 1 .222-.355.491.491 0 0 1 .5-.238.5.5 0 0 1 .182.067c.281.163.244.429.118.681a13.566 13.566 0 0 0-.939 2.16 3.971 3.971 0 0 1 .562-.215c.346-.074.664 0 .752.385zm-.037-15.475a.429.429 0 0 1-.041.249.436.436 0 0 1-.174.182.43.43 0 0 1-.48-.039 2.951 2.951 0 0 1-.91-1 .447.447 0 0 1 .021-.475.446.446 0 0 1 .438-.184 2.369 2.369 0 0 1 1.146 1.267zm-2.085 7.974a.446.446 0 0 1-.179.416.444.444 0 0 1-.45.043 1.94 1.94 0 0 1-.917-.806.445.445 0 0 1-.064-.225.435.435 0 0 1 .061-.225.434.434 0 0 1 .4-.216 2.007 2.007 0 0 1 1.154 1.013zm-1.398-15.282a1.139 1.139 0 0 1 .843.888.409.409 0 0 1-.024.176.4.4 0 0 1-.25.238.41.41 0 0 1-.177.015c-.333-.008-.888-.562-.859-.881a.434.434 0 0 1 .136-.322.407.407 0 0 1 .153-.092.431.431 0 0 1 .178-.022zm.613 11.103a.473.473 0 0 1 .157.346.474.474 0 0 1-.038.19.48.48 0 0 1-.111.159.444.444 0 0 1-.147.1.442.442 0 0 1-.5-.1 3.492 3.492 0 0 1-.88-1.043.434.434 0 0 1-.077-.226.443.443 0 0 1 .051-.234.443.443 0 0 1 .4-.235.572.572 0 0 1 .257.064.581.581 0 0 1 .2.173c.23.267.467.532.688.806zM61.3 23.821a.429.429 0 0 1-.173.616.422.422 0 0 1-.234.042 2.322 2.322 0 0 1-1.235-1.25.444.444 0 0 1 .206-.4.458.458 0 0 1 .224-.068.441.441 0 0 1 .228.056 2.791 2.791 0 0 1 .984 1.004z"></path><path class="e" d="M60.441 178.043a5.774 5.774 0 0 1 .7 2.818 4.307 4.307 0 0 1-1.405 2.893 43.613 43.613 0 0 1-3.832 3.054c-.222.185-.437.089-.673.023a57.721 57.721 0 0 0-7.042-1.879 20.719 20.719 0 0 0-5.777-.23c-.237.023-.474 0-.762 0 .089-.273.288-.377.444-.525a28.532 28.532 0 0 0 4.645-5.747 14.74 14.74 0 0 1 1.243-2.308c.259-.318.074-.836.192-1.265a38.028 38.028 0 0 0 1.206-5.06 9.091 9.091 0 0 0-.666-5.673A33.23 33.23 0 0 1 46 155.016c-.378-1.916-.925-3.795-1.147-5.74a10.65 10.65 0 0 0-1.065-3.211 9.745 9.745 0 0 1-.629-5.037 56.259 56.259 0 0 0 .193-5.674 4.028 4.028 0 0 0-.267-1.287 1.874 1.874 0 0 0-1.827-1.287 10.58 10.58 0 0 0-2.323.155c-.421.089-.517-.066-.569-.429-.074-.555-.178-1.1-.281-1.649a9.217 9.217 0 0 0-1.635-3.943 10.8 10.8 0 0 1-1.968-4.823 16.242 16.242 0 0 0-.636-2.426 9.419 9.419 0 0 0-3.565-4.749 25.59 25.59 0 0 0-3.048-1.775 1 1 0 0 0-.412-.172 1.019 1.019 0 0 0-.446.024c-.207.081-.333-.074-.481-.163-.5-.3-.976-.621-1.479-.91a.972.972 0 0 1-.555-1.095 14.17 14.17 0 0 0-.436-6.442 14.055 14.055 0 0 1 7.463-15.645 58.33 58.33 0 0 0 11.924-7.923c.208-.177.43-.34.74-.584.111.873.192 1.65.318 2.419a30.382 30.382 0 0 0 3.987 10.193c.6 1.028 1.28 2.019 1.872 3.055.762 1.339 1.79 2.486 2.655 3.743.873 1.287 1.82 2.523 2.759 3.765a1.26 1.26 0 0 1 .289.873c-.148 2.508-.3 5.015-.429 7.523-.1 1.953-.222 3.9-.288 5.851-.126 3.691-.23 7.375-.341 11.066-.007.266-.029.481-.34.614-.333.148-.289.488-.229.792.643 3.506 1.3 7.012 1.923 10.518.762 4.3 1.457 8.6 1.982 12.938.414 3.4.829 6.805 1.154 10.215.318 3.27.57 6.554.636 9.838a9.975 9.975 0 0 0 .942 4.409z"></path><path class="j" d="M60.618 10.61a1.087 1.087 0 0 1 .311 1.39 4.909 4.909 0 0 1-.444.71c-.643.858-.725.844-1.672.355a9.9 9.9 0 0 0-8.477-.651c-.407.163-.591.1-.784-.281a7.686 7.686 0 0 0-1.013-1.472 4.955 4.955 0 0 0-5.748-1.634c-.185.059-.37.133-.7.244a11.084 11.084 0 0 1 .658-1.065 10.5 10.5 0 0 1 6.428-4.032 6.588 6.588 0 0 1 3.277.444c.814.266 1.613.584 2.419.873a4.208 4.208 0 0 0 3.534-.191 4.786 4.786 0 0 1 .6-.266 1.226 1.226 0 0 1 1.346.156 1.392 1.392 0 0 1 .392 1.368 2.479 2.479 0 0 1-.6 1.213c-.281.318-.57.614-.866.917-.658.681-.562 1.125.326 1.435a2.929 2.929 0 0 1 1.013.487z"></path><path class="a" d="M59.657 33.5a.519.519 0 0 1 .1.606.422.422 0 0 1-.162.173.432.432 0 0 1-.23.057.708.708 0 0 1-.283-.091.684.684 0 0 1-.22-.2 75.45 75.45 0 0 1-1.317-1.7c-.192-.259-.288-.562.037-.784.281-.193.533-.052.725.192.447.582.898 1.166 1.35 1.747zm-.932-14.206a.453.453 0 0 1-.134.516.453.453 0 0 1-.532.031c-.37-.229-.732-.481-1.08-.747a.432.432 0 0 1-.126-.54.449.449 0 0 1 .437-.259 2.893 2.893 0 0 1 1.435.999zm-.289 8.322c.244.34.037.717-.407.724a1.156 1.156 0 0 1-.273-.118 4.789 4.789 0 0 1-.94-1.073.449.449 0 0 1-.081-.162.457.457 0 0 1 .048-.354.459.459 0 0 1 .122-.134.445.445 0 0 1 .159-.085.458.458 0 0 1 .18-.015.447.447 0 0 1 .171.059.432.432 0 0 1 .133.122 9.629 9.629 0 0 1 .888 1.036zM56.3 14.071a.428.428 0 0 1 .074.592.435.435 0 0 1-.577.163 11.816 11.816 0 0 0-1.079-.481.425.425 0 0 1-.163-.078.431.431 0 0 1-.116-.139.426.426 0 0 1-.047-.174.415.415 0 0 1 .03-.178c.088-.252.3-.356.636-.333a2.868 2.868 0 0 1 1.242.628zm-.09 8.189a.384.384 0 0 1 .14.481c-.074.214-.251.288-.54.288a3.3 3.3 0 0 1-1.45-.754.416.416 0 0 1-.123-.239.412.412 0 0 1 .049-.264.407.407 0 0 1 .5-.222 6.054 6.054 0 0 1 1.424.71z"></path><path class="f" d="M55.351 96.734a24.1 24.1 0 0 1 .126 5.274c-.052.015-.1.037-.155.052-1.006-1.4-2.019-2.8-3.025-4.194-.733-1.021-.726-1.028.517-1.213.688-.1 1.384-.178 2.064-.274.303-.044.414.044.473.355zm-.569 90.977c.481.148.666.333.5.932a25.611 25.611 0 0 0-.68 4.172 71.96 71.96 0 0 0-.244 2.678c-.022.273-.148.392-.414.384h-.592a.087.087 0 0 0-.007.045c-1.147-.133-2.286-.274-3.433-.407-.259-.03-.318-.148-.281-.4.377-2.663.769-5.319 1.347-7.938.1-.481.281-.555.732-.407 1.008.342 2.044.63 3.072.941zm.333-92.745c.044.3 0 .437-.333.466a23.238 23.238 0 0 0-3.41.525.477.477 0 0 1-.592-.244 56.314 56.314 0 0 1-2.914-4.86c-.119-.229-.178-.369.155-.473a20.478 20.478 0 0 1 5.267-1.036c1.087-.014 1.1-.014 1.213.9.207 1.571.399 3.146.614 4.722zm-.873-7.066c.037.31 0 .473-.377.48a19.72 19.72 0 0 0-5.859 1c-.791.251-.8.229-1.146-.525A33.9 33.9 0 0 1 45.4 85c-.148-.458 0-.651.392-.8a20.879 20.879 0 0 1 4.12-.961c.888-.126 1.776-.2 2.671-.3 1.42-.059 1.228-.073 1.309 1.214.084 1.247.224 2.499.35 3.747z"></path><path class="a" d="M53.968 25.618a.406.406 0 0 1 .1.54c-.1.207-.3.23-.591.215a6.2 6.2 0 0 1-2.057-1.458.4.4 0 0 1-.085-.282.41.41 0 0 1 .13-.265.4.4 0 0 1 .54-.089c.661.429 1.312.881 1.963 1.339z"></path><path class="f" d="M53.687 81.54c.03.348-.052.429-.4.444a25.645 25.645 0 0 0-7.974 1.383c-.385.141-.348-.133-.385-.318a17.362 17.362 0 0 1-.377-3.831 12.091 12.091 0 0 1 .111-2.057.474.474 0 0 1 .035-.2.5.5 0 0 1 .117-.169.478.478 0 0 1 .176-.1.472.472 0 0 1 .2-.021 23.8 23.8 0 0 1 7.908.984c.325.1.414.281.422.606.034 1.09.086 2.185.167 3.279zm-.087-7.818a1.668 1.668 0 0 1 .119.244 9.7 9.7 0 0 0-.215 2.515c-.007.384-.3.177-.436.133a21.674 21.674 0 0 0-3.743-.733 28.555 28.555 0 0 0-3.639-.2c-.193.007-.444.133-.555-.052-.133-.222.214-.3.273-.466a5.888 5.888 0 0 1 1.8-2.249 1.216 1.216 0 0 1 .796-.346 7.668 7.668 0 0 0 2.848-.829.757.757 0 0 1 .88.067 9.186 9.186 0 0 1 1.872 1.916z"></path><path class="a" d="M53.51 16.912a1.531 1.531 0 0 1 .081.207c-.037.311-.192.548-.5.474a7.737 7.737 0 0 1-1.279-.459.38.38 0 0 1-.184-.189.376.376 0 0 1-.016-.262.435.435 0 0 1 .1-.214.428.428 0 0 1 .193-.134 2.032 2.032 0 0 1 1.6.577zM51.586 20.4a.432.432 0 0 1 .237.547c-.074.259-.289.3-.562.3a2.488 2.488 0 0 1-1.369-.813.438.438 0 0 1-.126-.3.522.522 0 0 1 .245-.422.435.435 0 0 1 .348-.037.432.432 0 0 1 .155.09 8.151 8.151 0 0 0 1.072.635zm-.717 46.812c.237.259.1.511-.1.74a3.444 3.444 0 0 1-2.137 1.036c-.3.007-.577-.06-.614-.415s.207-.51.51-.54a2.641 2.641 0 0 0 1.561-.769c.232-.23.521-.34.78-.052zm-.585-22.361a1.743 1.743 0 0 1-.111.584 1.216 1.216 0 0 1-.924.991 1.243 1.243 0 0 1-1.243-.562 5.63 5.63 0 0 1-1.05-2.966 2.764 2.764 0 0 1 .348-1.354.825.825 0 0 1 .259-.312.817.817 0 0 1 .375-.154.84.84 0 0 1 .4.04.851.851 0 0 1 .337.226 5.381 5.381 0 0 1 1.609 3.507zm-.111-8.633c.023.466-.34.422-.672.466a25.219 25.219 0 0 0-3.366.8c-2.678.77-5.348 1.561-8.026 2.345-.311.089-.622.133-.747-.237-.156-.429.148-.636.495-.732 1.354-.407 2.715-.784 4.076-1.184 2.33-.687 4.653-1.383 7.035-1.9l.429-.082c.403.014.754.088.776.524z"></path><path class="f" d="M49.863 186.291c.251.059.3.155.237.414a77.249 77.249 0 0 0-1.384 8.122c-.051.459-.273.414-.6.34-1.886-.429-3.728-1-5.57-1.568l.111-.355a.251.251 0 0 0 .111.022c.407.044.5-.259.533-.569a27.82 27.82 0 0 1 .643-3.891 11.357 11.357 0 0 1 .843-2.848.558.558 0 0 1 .592-.363 24.258 24.258 0 0 1 4.484.696z"></path><path class="j" d="M48.583 13.6c.407.044.555.407.488.784-.7 4.3-1.841 8.4-4.859 11.754a20.932 20.932 0 0 1-7.316 5.57c-.237.1-.444.229-.725.082-.244-.126-.451.029-.629.221a14.917 14.917 0 0 1-3.669 2.737c-.362.2-.777.1-1.161.222a4.169 4.169 0 0 0-1.28.614 4.623 4.623 0 0 1-4.815.547 3.447 3.447 0 0 1-1.968-3.431 18.551 18.551 0 0 1 1.021-6.1c.754-2.352 1.2-4.816 2.655-6.909a20.575 20.575 0 0 1 8.618-7.353 11.166 11.166 0 0 1 4.712-.947 23.457 23.457 0 0 1 8.077 1.983 3.707 3.707 0 0 0 .851.226zm-8.7 10.326c.015-.251-.007-.429-.192-.525a.449.449 0 0 0-.555.074 2.008 2.008 0 0 0-.274.385c-1.376 2.167-2.581 4.453-4.49 6.235a.428.428 0 0 0-.059.592.452.452 0 0 0 .584.163 1.832 1.832 0 0 0 .733-.592 40.2 40.2 0 0 0 4.12-6.006 1.469 1.469 0 0 0 .134-.328zm-6.937 2.114c.111-.318.229-.658-.185-.806s-.629.162-.74.5a67.648 67.648 0 0 0-.651 2.174 37.245 37.245 0 0 0-.939 3.965.474.474 0 1 0 .932.17c.044-.155.074-.31.111-.466a47.578 47.578 0 0 1 1.472-5.537z"></path><path class="e" d="M48.546 167.332a13.346 13.346 0 0 1-.333 3.558 35.307 35.307 0 0 1-1.227 4.793 13.222 13.222 0 0 1-2.02 3.773 39.214 39.214 0 0 1-6.029 6.3 4.852 4.852 0 0 1-.687.466c-.259.148-.5.289-.755-.089-.17-.259-.488-.185-.658.06s-.385.229-.629.192c-2.915-.474-5.836-.836-8.714-1.509a3.462 3.462 0 0 1-2.064-1.3c-2-2.6-3.765-5.348-5.562-8.085a3.563 3.563 0 0 1-.747-2.182 36.06 36.06 0 0 1 1.353-8.6 21.952 21.952 0 0 0 .666-7.937 21.288 21.288 0 0 1 .074-3.943 4.465 4.465 0 0 1 .111-.533c.081-.325.2-.5.629-.377a7.19 7.19 0 0 1 1.1.444 22.337 22.337 0 0 0 12.871 1.924 11.98 11.98 0 0 0 6.872-3.433c.347-.325.739-.954 1.072-.843.385.118.207.836.3 1.287.658 2.944 1.279 5.888 1.908 8.825a14.479 14.479 0 0 0 1.265 3.284 11.434 11.434 0 0 1 1.204 3.925z"></path><path class="a" d="M47.4 64.1a2.236 2.236 0 0 1 .924 2.3 2.418 2.418 0 0 1-2.056 1.508c-.155.015-.318 0-.481 0a6.378 6.378 0 0 1-2.441-.5 2.094 2.094 0 0 1-.473-3.211 3.866 3.866 0 0 1 4.527-.1zm0 1.96a1.555 1.555 0 0 0-1.08-1.479 2.876 2.876 0 0 0-2.367.1c-.348.148-.755.326-.7.784a1.242 1.242 0 0 0 .755 1.124 6.317 6.317 0 0 0 1.716.385c.855.009 1.576-.405 1.676-.916z"></path><path d="M41.963 10.6c2.219-1.561 5.193-1.2 6.716 2.108a35.09 35.09 0 0 0-6.716-2.108z" style="fill:#f9dfc2"></path><path class="f" d="M43.309 185.6c.34-.037.473.059.355.436a35.744 35.744 0 0 0-1.22 5.659c-.045.311-.06.629-.074.947-.015.266.014.517.288.6l-.111.355q-1.231-.388-2.463-.754c-.769-.23-1.517-.511-2.293-.681-.636-.141-.88-.473-.821-.791.133-1.391.214-2.486.406-3.566.045-.229.119-.392.407-.421a2.834 2.834 0 0 0 1.65-.785 2.712 2.712 0 0 1 1.857-.806c.673-.02 1.346-.124 2.019-.193zm.237-37.2a.5.5 0 0 1 .032.318.51.51 0 0 1-.165.274c-.814.71-1.613 1.427-2.427 2.137-.133.119-.266.252-.466.156.333-.148.222-.429.178-.666-.762-3.75-1.428-7.516-2.33-11.236a1.163 1.163 0 0 1 .281-1.14c.473-.562.865-1.191 1.287-1.8.185-.274.37-.592.044-.851-.362-.281-.621-.007-.835.281-.067.1-.141.185-.3.385-.1-.769-.178-1.42-.252-2.078-.022-.222.155-.259.318-.281a13.627 13.627 0 0 1 2.264-.171 1.069 1.069 0 0 1 1.05.806 6.054 6.054 0 0 1 .185 1.783c.044 2.175-.244 4.335-.288 6.51a7 7 0 0 0 .658 3.247 12.24 12.24 0 0 1 .766 2.326z"></path><path class="a" d="M40.52 151.288h-.005v-.007z"></path><path class="f" d="M40.513 151.295c.045.192-.1.274-.229.363a9.74 9.74 0 0 1-5.26 1.738c-.532.029-.577-.392-.628-.77-.17-1.176-.318-2.367-.481-3.55a52.076 52.076 0 0 0-1.724-8.233c-.155-.518-.052-.644.481-.629a9.427 9.427 0 0 0 4.453-.644c.385-.184.326.148.363.333.636 2.612 1.139 5.252 1.664 7.886.2 1 .385 2 .6 2.988.08.385.228.762.761.518z"></path><path class="a" d="M40.128 60.666c.185.259.067.5-.126.7a1.266 1.266 0 0 1-.85.391 6.864 6.864 0 0 1-2.9-.192 2.341 2.341 0 0 1-1.716-3.114c.252-.984.584-1.945.814-2.929a4.246 4.246 0 0 0-.119-2.641c-.118-.3-.125-.621.245-.747.347-.126.562.089.687.4a4.755 4.755 0 0 1 .274 1.82 9.141 9.141 0 0 1-.562 2.981c-.17.57-.318 1.147-.466 1.731a1.049 1.049 0 0 0 .5 1.235 3.751 3.751 0 0 0 3.535.274c.263-.109.499-.168.684.091zM39.692 23.4c.185.1.207.274.192.525a1.469 1.469 0 0 1-.133.326 40.2 40.2 0 0 1-4.12 6.006 1.832 1.832 0 0 1-.733.592.452.452 0 0 1-.584-.163.428.428 0 0 1 .059-.592c1.909-1.782 3.114-4.068 4.49-6.235a2.008 2.008 0 0 1 .274-.385.449.449 0 0 1 .555-.074z"></path><path class="g" d="M37.909 137.226a.886.886 0 0 1-.039.372.9.9 0 0 1-.19.323 4.507 4.507 0 0 1-3.358 1.324 36.321 36.321 0 0 1-7.9-.747c-.052-.007-.1-.067-.178-.118a2.64 2.64 0 0 1 .318-.193c1.982-.776 3.9-1.73 5.925-2.4.111-.037.229-.074.34-.119.289-.1.518-.281.422-.621-.111-.363-.407-.385-.732-.289a33.16 33.16 0 0 0-3.788 1.473c-.384.162-.761.355-1.161.48a12.349 12.349 0 0 0-5.688 4.209 27.336 27.336 0 0 1-3.211 3.462 4.115 4.115 0 0 1-1.205.762c-.385.148-.57.022-.607-.37a3.88 3.88 0 0 1 .237-1.59 22.34 22.34 0 0 1 3.558-6.4c.288-.406.6-.791.895-1.2.222-.3.429-.636.1-.962-.355-.355-.658-.066-.947.156a37.124 37.124 0 0 0-5.089 5.133 37.38 37.38 0 0 1-3.417 3.765 3.591 3.591 0 0 1-.858.637c-.525.258-.784.133-.88-.444a1.905 1.905 0 0 1 .029-.71 18.966 18.966 0 0 1 2.545-5.844 46.76 46.76 0 0 1 4.12-5.94 1.937 1.937 0 0 0 .214-.288.523.523 0 0 0-.029-.711.519.519 0 0 0-.354-.144.511.511 0 0 0-.356.137c-.207.148-.4.325-.6.488a36.828 36.828 0 0 0-6.022 6.31 25.029 25.029 0 0 1-2.456 2.848 3.248 3.248 0 0 1-1.013.732c-.525.207-.747.081-.836-.466a3.513 3.513 0 0 1 .126-1.3 19.736 19.736 0 0 1 2.752-6.457A33.207 33.207 0 0 1 14 125.56c.251-.244.421-.532.177-.843-.259-.333-.562-.133-.85.03a31.465 31.465 0 0 0-8.847 7.87 18.614 18.614 0 0 1-2.439 2.783c-.207.17-.422.466-.71.347-.3-.126-.319-.488-.348-.776a6.161 6.161 0 0 1 .525-2.915 21.143 21.143 0 0 1 3.743-5.814 40.983 40.983 0 0 1 8.662-7.759 17.451 17.451 0 0 1 2.064-1.08c.392-.193.621-.171.85.229a14.471 14.471 0 0 0 .992 1.427 3.674 3.674 0 0 0 .591.585c.259.207.578.274.8-.03.2-.274.052-.518-.192-.717a7.476 7.476 0 0 1-1.539-2.049 5.476 5.476 0 0 0-4.689-2.745c-1.125-.081-2.256-.222-3.388-.347a2.854 2.854 0 0 1-1.339-.466.9.9 0 0 1-.325-.266.888.888 0 0 1 .081-1.162 4.01 4.01 0 0 1 1.546-1.2 8.806 8.806 0 0 1 3.521-.851 21.063 21.063 0 0 1 12.775 4.039c.406.273.784.569 1.316.34.133-.059.266.044.385.111l1.265.688A9.262 9.262 0 0 1 33.4 121.6c.155.762.318 1.523.5 2.278a6.155 6.155 0 0 0 1.072 2.515 13.837 13.837 0 0 1 2.626 7.449c.111 1.128.259 2.252.311 3.384zM26.754 125.99a.409.409 0 0 0 .049-.292.415.415 0 0 0-.159-.249 1.554 1.554 0 0 0-.518-.281 12.25 12.25 0 0 1-3.011-1.56 9.2 9.2 0 0 1-1.361-1.154c-.2-.2-.459-.3-.688-.074a.5.5 0 0 0-.155.346.493.493 0 0 0 .133.356 1.567 1.567 0 0 0 .281.311 12.682 12.682 0 0 0 4.579 2.722c.133.045.266.082.3.089.296.03.454-.037.55-.214z"></path><path class="f" d="M36.03 187.319c.318.044.437.17.378.51a26.662 26.662 0 0 0-.363 3.44c-.015.34-.163.348-.414.274l-4.29-1.287a.669.669 0 0 1-.262-.1.654.654 0 0 1-.285-.469.644.644 0 0 1 .029-.279c.14-.806.251-1.62.31-2.426.023-.341.089-.437.363-.333 1.539.226 3.033.451 4.534.67zm-2.522-34.234c.044.281.015.466-.34.451-.452-.015-.91 0-1.369 0a17.817 17.817 0 0 1-3.321-.355c-.459-.088-.658-.192-.577-.74.466-3.269-.318-6.413-1.006-9.564-.2-.917-.429-1.827-.621-2.737-.126-.584 0-.695.569-.614 1.258.192 2.515.392 3.78.562a.487.487 0 0 1 .319.109.481.481 0 0 1 .169.291 62.45 62.45 0 0 1 2.064 10.3c.089.766.207 1.528.333 2.297z"></path><path class="a" d="M31.4 50.458a4.291 4.291 0 0 1 1.782 3.1 1.016 1.016 0 0 1-.7 1.11 1 1 0 0 1-1.272-.437c-.548-.651-.866-1.457-1.443-2.093a.953.953 0 0 1-.118-1.062.956.956 0 0 1 .237-.292 1.184 1.184 0 0 1 1.509-.325zm1.361-25.224c.414.148.3.488.185.806a47.578 47.578 0 0 0-1.472 5.54c-.037.156-.067.311-.111.466a.474.474 0 1 1-.932-.17 37.17 37.17 0 0 1 .939-3.964c.207-.733.422-1.458.651-2.175.111-.337.318-.659.74-.503zm-3.129 19.018a.417.417 0 0 1 .007.165.408.408 0 0 1-.059.154.417.417 0 0 1-.114.119.41.41 0 0 1-.152.065 10.392 10.392 0 0 0-3.743 2.367 13.147 13.147 0 0 0-1.864 2.093c-.222.3-.5.533-.851.281-.37-.266-.177-.584.052-.873a15.5 15.5 0 0 1 5.215-4.468c.207-.1.429-.2.651-.288a.486.486 0 0 1 .185-.03c.362-.015.614.082.673.415z"></path><path class="f" d="M27.013 148.906a16.472 16.472 0 0 1-.059 3.572c-.03.252-.089.3-.325.23a25.231 25.231 0 0 1-3.662-1.458c-.214-.1-.177-.221-.081-.377.207-.34.392-.695.614-1.028a3.989 3.989 0 0 0 .518-3.151c-.326-1.583-.637-3.166-.984-4.742a1.206 1.206 0 0 1 .369-1.279 16.874 16.874 0 0 1 1.709-1.576c.57 3.336 1.568 6.51 1.901 9.809z"></path><path class="a" d="M26.644 125.449a.415.415 0 0 1 .159.249.409.409 0 0 1-.049.292c-.1.177-.251.244-.554.214a5.041 5.041 0 0 1-.3-.089 12.682 12.682 0 0 1-4.579-2.722 1.54 1.54 0 0 1-.281-.311.492.492 0 0 1-.133-.355.5.5 0 0 1 .155-.347c.229-.222.488-.126.688.074a9.2 9.2 0 0 0 1.361 1.154 12.25 12.25 0 0 0 3.011 1.56 1.554 1.554 0 0 1 .522.281z"></path><path class="i" d="M23.44 23.673c.119.251-.037.466-.111.688a30.852 30.852 0 0 0-1.582 6.79 7.264 7.264 0 0 0 .687 4.409.4.4 0 0 1 .073.248.394.394 0 0 1-.1.24 22.991 22.991 0 0 0-3.225 5.711 7.416 7.416 0 0 1-.74-2.752 21.48 21.48 0 0 1 1.2-7.634 28.106 28.106 0 0 1 3.343-7.182c.111-.163.229-.326.348-.481a.214.214 0 0 1 .107-.037zm-1.546 5.178a.4.4 0 0 0 0-.3.41.41 0 0 0-.2-.215.424.424 0 0 0-.584.111 3.357 3.357 0 0 0-.518 1.236c0 .288.074.458.3.532a.423.423 0 0 0 .555-.214 11.121 11.121 0 0 0 .447-1.15zm-1.753 6.4c.008-.31 0-.628-.407-.658s-.488.288-.525.592-.044.629-.051.939a.455.455 0 0 0 .092.339.462.462 0 0 0 .136.117.47.47 0 0 0 .171.055.464.464 0 0 0 .178-.007.439.439 0 0 0 .162-.076.449.449 0 0 0 .12-.133.465.465 0 0 0 .058-.169 3.608 3.608 0 0 0 .066-.7h-.014c.007-.108.014-.205.014-.301z"></path><path class="a" d="M21.687 28.34a.41.41 0 0 1 .2.215.4.4 0 0 1 0 .3 11.121 11.121 0 0 1-.458 1.154.423.423 0 0 1-.555.214c-.222-.074-.3-.244-.3-.532a3.357 3.357 0 0 1 .518-1.236.424.424 0 0 1 .584-.111zm-1.953 6.251c.407.03.415.348.407.658 0 .1-.007.193-.014.3h.014a3.608 3.608 0 0 1-.066.7.465.465 0 0 1-.058.169.449.449 0 0 1-.12.133.439.439 0 0 1-.162.076.464.464 0 0 1-.178.007.47.47 0 0 1-.171-.055.462.462 0 0 1-.136-.117.455.455 0 0 1-.092-.339c.007-.31.014-.629.051-.939s.126-.615.525-.593z"></path></g></svg>